<?xml version="1.0" encoding="iso-8859-1"?>
<!-- Generator: Adobe Illustrator 14.0.0, SVG Export Plug-In . SVG Version: 6.00 Build 43363)  -->
<!DOCTYPE svg PUBLIC "-//W3C//DTD SVG 1.1//EN" "http://www.w3.org/Graphics/SVG/1.1/DTD/svg11.dtd">
<svg version="1.1" id="icon-s-status-wlan-layer" xmlns="http://www.w3.org/2000/svg" xmlns:xlink="http://www.w3.org/1999/xlink"
	 x="0px" y="0px" width="22px" height="18px" viewBox="0 0 22 18" style="enable-background:new 0 0 22 18;" xml:space="preserve">
<g id="icon-s-status-wlan">
	<path style="fill:#FFFFFF;" d="M1.459,0C1.415,0.068,0,2.15,0,4.773c0,2.705,1.413,4.701,1.457,4.77
		c0.23-0.166,0.625-0.451,0.855-0.615c-0.043-0.066-1.277-1.9-1.277-4.154c0-2.437,1.234-4.088,1.277-4.155
		C2.081,0.449,1.689,0.164,1.459,0"/>
	<path style="fill:#FFFFFF;" d="M5.838,7.209c-0.049-0.07-0.803-1.252-0.803-2.523c0-1.416,0.754-2.457,0.8-2.522
		c-0.231-0.167-0.628-0.448-0.858-0.62C4.932,1.617,4,2.854,4,4.686c0,1.797,0.932,3.072,0.977,3.14
		C5.209,7.66,5.604,7.373,5.838,7.209"/>
	<path style="fill:#FFFFFF;" d="M20.541,0c-0.23,0.164-0.627,0.449-0.857,0.615C19.727,0.68,21,2.29,21,4.543
		c0,2.436-1.273,4.312-1.316,4.379c0.23,0.17,0.627,0.455,0.857,0.621C20.58,9.477,22,7.168,22,4.543
		C22,1.839,20.587,0.068,20.541,0"/>
	<path style="fill:#FFFFFF;" d="M16.031,1.98C16.08,2.052,17,3.273,17,4.543c0,1.416-0.92,2.416-0.967,2.482
		c0.23,0.164,0.623,0.449,0.855,0.619C16.934,7.573,18,6.373,18,4.543c0-1.799-1.064-3.113-1.109-3.178
		C16.66,1.529,16.266,1.814,16.031,1.98"/>
	<path style="fill:#FFFFFF;" d="M12,6.543c2,0,2-2,2-2c0-1.379-1.619-3-3-3s-3,1.621-3,3c0,0,0,2,2,2l-1.988,7.908L5,15.543v2h12v-2
		h-3L12,6.543z"/>
</g>
</svg>
