<?xml version="1.0" encoding="iso-8859-1"?>
<!-- Generator: Adobe Illustrator 14.0.0, SVG Export Plug-In . SVG Version: 6.00 Build 43363)  -->
<!DOCTYPE svg PUBLIC "-//W3C//DTD SVG 1.1//EN" "http://www.w3.org/Graphics/SVG/1.1/DTD/svg11.dtd">
<svg version="1.1" id="icon-s-status-email-layer" xmlns="http://www.w3.org/2000/svg" xmlns:xlink="http://www.w3.org/1999/xlink"
	 x="0px" y="0px" width="17px" height="17px" viewBox="0 0 17 17" style="enable-background:new 0 0 17 17;" xml:space="preserve">
<g id="icon-s-status-email">
	<path style="fill:#FFFFFF;" d="M9.738,3.783c-1.707,0-3.067,0.512-4.09,1.527C4.632,6.328,4.117,7.727,4.117,9.52
		c0,1.146,0.3,2.049,0.882,2.724c0.587,0.668,1.304,1.004,2.147,1.004c1.262,0,2.256-0.646,2.988-1.92
		c0.17,0.6,0.497,1.073,0.958,1.405c0.46,0.349,1,0.515,1.617,0.515c1.33,0,2.386-0.463,3.146-1.379C16.624,10.962,17,9.67,17,7.992
		c0-2.501-0.705-4.462-2.117-5.874C13.471,0.705,11.484,0,8.928,0C7.257,0,5.727,0.336,4.344,1.018
		C2.961,1.698,1.889,2.669,1.137,3.936C0.377,5.209,0,6.702,0,8.424c0,2.76,0.811,4.875,2.432,6.355C4.051,16.26,6.236,17,8.99,17
		c0.684,0,1.465-0.074,2.361-0.215c0.885-0.143,1.614-0.318,2.164-0.52V14.52c-1.516,0.506-2.971,0.756-4.353,0.756
		c-2.337,0-4.086-0.58-5.257-1.743c-1.172-1.154-1.754-2.896-1.754-5.207c0-2.068,0.635-3.692,1.91-4.859
		c1.266-1.174,2.899-1.761,4.91-1.761c1.912,0,3.396,0.559,4.442,1.673c1.047,1.118,1.565,2.685,1.565,4.703
		c0,1.147-0.151,2.037-0.471,2.666c-0.324,0.639-0.758,0.951-1.311,0.951c-0.43,0-0.734-0.128-0.915-0.371
		c-0.177-0.25-0.271-0.771-0.271-1.568c0-1.312,0.242-3.3,0.732-5.975L9.738,3.783L9.738,3.783z M9.68,8.303
		c-0.279,2.252-0.873,3.373-1.783,3.373c-0.483,0-0.83-0.18-1.024-0.549c-0.2-0.373-0.297-0.939-0.297-1.709
		c0-1.243,0.271-2.225,0.805-2.956c0.544-0.735,1.195-1.099,1.946-1.099h0.729L9.68,8.303z"/>
</g>
</svg>
