<?xml version="1.0" encoding="iso-8859-1"?>
<!-- Generator: Adobe Illustrator 14.0.0, SVG Export Plug-In . SVG Version: 6.00 Build 43363)  -->
<!DOCTYPE svg PUBLIC "-//W3C//DTD SVG 1.1//EN" "http://www.w3.org/Graphics/SVG/1.1/DTD/svg11.dtd">
<svg version="1.1" id="icon-s-status-call-layer" xmlns="http://www.w3.org/2000/svg" xmlns:xlink="http://www.w3.org/1999/xlink"
	 x="0px" y="0px" width="18px" height="18px" viewBox="0 0 18 18" style="enable-background:new 0 0 18 18;" xml:space="preserve">
<g id="icon-s-status-call_1_">
	<rect style="fill:none;" width="18" height="18"/>
	<path style="fill:#FFFFFF;" d="M11.878,0.727C8.641,2.248,2.209,7.898,0.681,11.904c-0.67,1.754,0.699,4.528,1.782,5.39
		c-0.001,0.003,0.557,0.466,0.974-0.007l2.915-3.926c0.198-0.253,0.395-0.587-0.008-0.985c0,0-2.019-1.452-1.434-2.38
		c0.408-0.642,4.418-4.645,5.061-5.051c0.931-0.585,2.387,1.427,2.387,1.427c0.402,0.399,0.734,0.202,0.988,0.007l3.937-2.913
		c0.475-0.421,0.01-0.976,0.006-0.976C16.421,1.42,13.586-0.074,11.878,0.727z"/>
</g>
</svg>
