<?xml version="1.0" encoding="iso-8859-1"?>
<!-- Generator: Adobe Illustrator 14.0.0, SVG Export Plug-In . SVG Version: 6.00 Build 43363)  -->
<!DOCTYPE svg PUBLIC "-//W3C//DTD SVG 1.1//EN" "http://www.w3.org/Graphics/SVG/1.1/DTD/svg11.dtd">
<svg version="1.1" id="icon-s-status-bluetooth-active-layer"
	 xmlns="http://www.w3.org/2000/svg" xmlns:xlink="http://www.w3.org/1999/xlink" x="0px" y="0px" width="14px" height="18px"
	 viewBox="0 0 14 18" style="enable-background:new 0 0 14 18;" xml:space="preserve">
<g id="icon-s-status-bluetooth-active">
	<polygon style="fill:#ffffff;" points="7.861,5.034 7.861,6.876 8.783,5.954 	"/>
	<polygon style="fill:#ffffff;" points="7.861,13.046 8.836,12.072 7.861,11.099 	"/>
	<path style="fill:#ffffff;" d="M6.896,0C3.094,0,0,4.037,0,9c0,4.962,3.094,9,6.896,9c3.805,0,6.898-4.038,6.898-9
		C13.795,4.037,10.701,0,6.896,0z M6.143,17.103V11.03l-2.357,2.356l-1.217-1.216l3.177-3.177L2.638,5.875l1.217-1.216l2.288,2.287
		V0.897l5.084,5.069L8.176,8.996l3.053,3.031L6.143,17.103z"/>
</g>
</svg>
