<?xml version="1.0" encoding="iso-8859-1"?>
<!-- Generator: Adobe Illustrator 14.0.0, SVG Export Plug-In . SVG Version: 6.00 Build 43363)  -->
<!DOCTYPE svg PUBLIC "-//W3C//DTD SVG 1.1//EN" "http://www.w3.org/Graphics/SVG/1.1/DTD/svg11.dtd">
<svg version="1.1" id="icon-status-silent-layer" xmlns="http://www.w3.org/2000/svg" xmlns:xlink="http://www.w3.org/1999/xlink"
	 x="0px" y="0px" width="14px" height="17px" viewBox="0 0 14 17" style="enable-background:new 0 0 14 17;" xml:space="preserve">
<g id="icon-status-silent">
	<path style="fill:#FFFFFF;" d="M7.957,4.428V1.973l5.27,0.006V0H6.178C5.844,0,5.57,0.273,5.57,0.609v1.34L7.957,4.428z"/>
	<path style="fill:#FFFFFF;" d="M5.569,9.74v1.951c-0.812-0.291-2.097-0.34-3.054,0.194c-1.561,0.862-2.25,2.488-1.58,3.702
		c0.674,1.219,2.451,1.758,4.31,1.178c1.124-0.353,2.181-1.326,2.304-2.228c0.008-0.099,0.018-0.847,0.018-0.92v-1.884L5.569,9.74z"
		/>
	
		<rect x="6.089" y="-1.743" transform="matrix(-0.7074 0.7068 -0.7068 -0.7074 16.9833 7.4282)" style="fill:#FFFFFF;" width="1.731" height="17.945"/>
</g>
</svg>
