<?xml version="1.0" encoding="iso-8859-1"?>
<!-- Generator: Adobe Illustrator 14.0.0, SVG Export Plug-In . SVG Version: 6.00 Build 43363)  -->
<!DOCTYPE svg PUBLIC "-//W3C//DTD SVG 1.1//EN" "http://www.w3.org/Graphics/SVG/1.1/DTD/svg11.dtd">
<svg version="1.1" id="icon-s-status-alarm-layer" xmlns="http://www.w3.org/2000/svg" xmlns:xlink="http://www.w3.org/1999/xlink"
	 x="0px" y="0px" width="10px" height="11px" viewBox="0 0 10 11" style="enable-background:new 0 0 10 11;" xml:space="preserve">
<g id="icon-s-status-alarm">
	<path style="fill:#FFFFFF;" d="M9.493,3.654C9.215,3.372,8.924,3.306,8.559,3.166C7.682,2.829,6.814,2.334,6.084,1.74
		C5.593,1.342,5.138,1.017,4.535,0.781C3.257,0.283,1.908,0.421,0.9,1.386L0.887,1.399c-0.967,1.01-1.102,2.358-0.605,3.636
		C0.516,5.64,0.841,6.092,1.24,6.584C1.834,7.312,2.33,8.18,2.668,9.057C2.807,9.422,2.873,9.715,3.154,9.99
		c0.191,0.188,0.201,0.201,0.389,0.391c0.128,0.127,0.378,0.17,0.505,0.043L6.98,7.492l0.012-0.016l2.933-2.929
		c0.126-0.128,0.082-0.378-0.043-0.506C9.691,3.854,9.68,3.845,9.493,3.654z"/>
	<path style="fill:#FFFFFF;" d="M6.607,9.252c0.273,0.455,0.771,0.762,1.343,0.762c0.864,0,1.565-0.701,1.565-1.564
		c0-0.57-0.308-1.068-0.764-1.342L6.607,9.252z"/>
</g>
</svg>
