<?xml version="1.0" encoding="iso-8859-1"?>
<!-- Generator: Adobe Illustrator 14.0.0, SVG Export Plug-In . SVG Version: 6.00 Build 43363)  -->
<!DOCTYPE svg PUBLIC "-//W3C//DTD SVG 1.1//EN" "http://www.w3.org/Graphics/SVG/1.1/DTD/svg11.dtd">
<svg version="1.1" id="notifier-background-layer" xmlns="http://www.w3.org/2000/svg" xmlns:xlink="http://www.w3.org/1999/xlink"
	 x="0px" y="0px" width="58.775px" height="41.186px" viewBox="0 0 58.775 41.186"
	 style="enable-background:new 0 0 58.775 41.186;" xml:space="preserve">
<g id="notifier-background">
	
		<linearGradient id="SVGID_1_" gradientUnits="userSpaceOnUse" x1="-1173.1123" y1="1120.5" x2="-1173.1123" y2="1080.3145" gradientTransform="matrix(1 0 0 -1 1202.5 1121)">
		<stop  offset="0" style="stop-color:#FEEB19"/>
		<stop  offset="0.2061" style="stop-color:#F9DA1C"/>
		<stop  offset="0.5165" style="stop-color:#F4C61E"/>
		<stop  offset="0.7913" style="stop-color:#F2BA20"/>
		<stop  offset="1" style="stop-color:#F1B620"/>
	</linearGradient>
	<path style="fill:url(#SVGID_1_);" d="M9,40.686c-4.687,0-8.5-3.812-8.5-8.5V9c0-4.688,3.813-8.5,8.5-8.5h40.775
		c4.687,0,8.5,3.812,8.5,8.5v23.186c0,4.688-3.813,8.5-8.5,8.5H9z"/>
	<path style="fill:#FFFFFF;" d="M49.775,1c4.41,0,8,3.589,8,8v23.186c0,4.412-3.59,8-8,8H9c-4.411,0-8-3.588-8-8V9
		c0-4.411,3.589-8,8-8H49.775 M49.775,0H9C4.05,0,0,4.05,0,9v23.186c0,4.95,4.05,9,9,9h40.775c4.949,0,9-4.05,9-9V9
		C58.775,4.05,54.727,0,49.775,0L49.775,0z"/>
</g>
</svg>
