<?xml version="1.0" encoding="iso-8859-1"?>
<!-- Generator: Adobe Illustrator 14.0.0, SVG Export Plug-In . SVG Version: 6.00 Build 43363)  -->
<!DOCTYPE svg PUBLIC "-//W3C//DTD SVG 1.1//EN" "http://www.w3.org/Graphics/SVG/1.1/DTD/svg11.dtd">
<svg version="1.1" id="Task-switcher-thumbnail-selected-layer"
	 xmlns="http://www.w3.org/2000/svg" xmlns:xlink="http://www.w3.org/1999/xlink" x="0px" y="0px" width="126px" height="126px"
	 viewBox="0 0 126 126" style="enable-background:new 0 0 126 126;" xml:space="preserve">
<g id="Task-switcher-thumbnail-selected">
	<path style="opacity:0.93;fill:#FFA000;enable-background:new    ;" d="M122,1H4C2.346,1,1,2.346,1,4v31.748h124V4
		C125,2.346,123.654,1,122,1z"/>
	<path style="fill:#FFA000;" d="M122.805,0.082C122.544,0.028,122.275,0,122,0H4C1.8,0,0,1.8,0,4v31.748V122c0,2.199,1.8,4,4,4h118
		c2.201,0,4-1.801,4-4V35.748V4C126,2.075,124.623,0.456,122.805,0.082z M125,35.748V122c0,1.654-1.346,3-3,3H4
		c-1.654,0-3-1.346-3-3V35.748V4c0-1.654,1.346-3,3-3h118c1.654,0,3,1.346,3,3V35.748z"/>
</g>
</svg>
