<?xml version="1.0" encoding="utf-8"?>
<!-- Generator: Adobe Illustrator 14.0.0, SVG Export Plug-In . SVG Version: 6.00 Build 43363)  -->
<!DOCTYPE svg PUBLIC "-//W3C//DTD SVG 1.1//EN" "http://www.w3.org/Graphics/SVG/1.1/DTD/svg11.dtd">
<svg version="1.1" id="thumbnail-dummy-bookmark-layer"
	 xmlns="http://www.w3.org/2000/svg" xmlns:xlink="http://www.w3.org/1999/xlink" x="0px" y="0px" width="188px" height="123px"
	 viewBox="0 0 188 123" enable-background="new 0 0 188 123" xml:space="preserve">
<g id="thumbnail-dummy-bookmark">
	<path opacity="0.15" fill="#FFFFFF" enable-background="new    " d="M93.9,122.013H175c6.6,0,12-5.399,12-12v-74H1v74
		c0,6.601,5.398,12,12,12h17.143H93.9z"/>
	<path opacity="0.9" fill="#010101" enable-background="new    " d="M187,13.014c0-6.6-5.4-12-12-12H13c-6.602,0-12,5.4-12,12v23
		h186V13.014z"/>
	<g opacity="0.3">
		<path fill="#FFFFFF" d="M175,0h-12v1h12V0L175,0L175,0z M151,0h-12v1h12V0L151,0z M127,0h-12v1h12V0L127,0z M103,0H91v1h12V0
			L103,0z M79,0H67v1h12V0L79,0z M55,0H43v1h12V0L55,0z M31,0H19v1h12V0L31,0z M7.213,1.368c-0.937,0.469-1.81,1.048-2.602,1.721v0
			C4.6,3.099,4.588,3.108,4.576,3.118l0,0.001c-0.018,0.015-0.035,0.03-0.052,0.045h0C4.505,3.18,4.488,3.194,4.471,3.21h0
			C4.458,3.22,4.447,3.23,4.436,3.24c0,0,0,0,0,0.001C4.432,3.243,4.43,3.246,4.427,3.248c0,0,0,0,0,0
			C4.4,3.271,4.375,3.294,4.349,3.317c0,0,0,0,0,0C4.346,3.32,4.343,3.323,4.34,3.325l0,0C4.325,3.338,4.311,3.351,4.297,3.364
			c0,0,0,0-0.001,0C4.293,3.367,4.291,3.37,4.288,3.372l0,0C4.273,3.385,4.259,3.398,4.245,3.411l0,0
			C4.23,3.424,4.217,3.438,4.202,3.45c0,0,0,0,0,0C4.199,3.453,4.197,3.456,4.194,3.458l0,0C4.185,3.467,4.177,3.474,4.168,3.482
			c0,0,0,0-0.001,0C4.165,3.485,4.163,3.487,4.16,3.489c0,0.001-0.001,0.001-0.001,0.001C4.156,3.493,4.154,3.495,4.151,3.498
			c0,0,0,0,0,0C4.142,3.506,4.134,3.514,4.125,3.521c0,0,0,0,0,0.001C4.123,3.524,4.12,3.527,4.117,3.529c0,0,0,0.001,0,0.001
			C4.114,3.532,4.111,3.535,4.109,3.537c0,0,0,0.001,0,0.001c-0.011,0.01-0.022,0.021-0.033,0.031c0,0,0,0-0.001,0.001
			C4.072,3.572,4.069,3.575,4.066,3.578l0,0c-0.011,0.01-0.022,0.021-0.034,0.032l0,0.001C4.03,3.612,4.027,3.615,4.025,3.617
			c-0.001,0-0.001,0.001-0.002,0.001C4.021,3.621,4.019,3.623,4.017,3.625c0,0,0,0.001-0.001,0.001C4.007,3.634,4,3.642,3.991,3.649
			c0,0-0.001,0.001-0.001,0.001C3.988,3.653,3.985,3.655,3.982,3.658l0,0C3.979,3.661,3.977,3.663,3.975,3.666c0,0,0,0-0.001,0
			C3.965,3.674,3.958,3.682,3.949,3.69c0,0,0,0,0,0C3.946,3.693,3.943,3.696,3.941,3.698c0,0,0,0-0.001,0.001
			C3.938,3.701,3.935,3.704,3.932,3.707l0,0C3.924,3.715,3.916,3.723,3.908,3.73L3.907,3.731C3.904,3.734,3.902,3.736,3.899,3.739
			c0,0,0,0-0.001,0.001C3.896,3.742,3.894,3.744,3.892,3.746c0,0.001-0.001,0.001-0.002,0.002C3.888,3.75,3.885,3.753,3.883,3.755
			l0,0.001C3.877,3.761,3.872,3.767,3.866,3.771c0,0,0,0,0,0C3.863,3.774,3.861,3.777,3.858,3.779
			C3.857,3.78,3.857,3.78,3.857,3.781C3.854,3.783,3.853,3.785,3.85,3.788c0,0,0,0-0.001,0C3.847,3.791,3.844,3.794,3.841,3.796v0
			C3.833,3.805,3.825,3.812,3.816,3.821l0,0C3.814,3.824,3.812,3.826,3.809,3.829c0,0,0,0,0,0C3.805,3.832,3.803,3.835,3.8,3.837
			c0,0,0,0,0,0C3.792,3.846,3.784,3.854,3.776,3.862c0,0-0.001,0-0.001,0.001C3.772,3.865,3.771,3.867,3.768,3.87
			c0,0-0.001,0-0.001,0.001C3.765,3.874,3.763,3.875,3.76,3.877c0,0-0.001,0.001-0.002,0.002C3.756,3.882,3.754,3.884,3.751,3.887
			c0,0,0,0,0,0C3.746,3.893,3.74,3.897,3.735,3.903c0,0,0,0.001-0.001,0.001C3.732,3.906,3.729,3.909,3.728,3.911
			C3.727,3.912,3.727,3.912,3.726,3.913C3.724,3.915,3.722,3.917,3.719,3.919c0,0.001-0.001,0.001-0.001,0.002
			C3.715,3.923,3.713,3.926,3.711,3.928c0,0,0,0,0,0.001C3.705,3.934,3.7,3.939,3.694,3.945c0,0-0.001,0.001-0.001,0.001
			C3.691,3.948,3.688,3.951,3.687,3.953c0,0-0.001,0.001-0.002,0.002C3.683,3.957,3.681,3.959,3.679,3.961
			c0,0-0.001,0.001-0.001,0.002C3.675,3.965,3.673,3.967,3.671,3.969c0,0.001-0.001,0.001-0.001,0.002
			C3.667,3.973,3.665,3.976,3.662,3.979c0,0,0,0,0,0C3.659,3.981,3.656,3.984,3.654,3.987l0,0C3.651,3.989,3.649,3.992,3.646,3.994
			c0,0.001-0.002,0.002-0.002,0.003C3.643,3.999,3.641,4,3.639,4.002c-0.001,0-0.001,0.001-0.002,0.002
			C3.635,4.007,3.633,4.008,3.631,4.01C3.63,4.011,3.63,4.012,3.628,4.013C3.627,4.015,3.625,4.017,3.623,4.019
			C3.622,4.02,3.622,4.02,3.621,4.021C3.619,4.023,3.616,4.026,3.613,4.029v0C3.611,4.032,3.608,4.034,3.606,4.037
			c0,0-0.001,0-0.001,0.001C3.603,4.04,3.601,4.042,3.598,4.045c0,0-0.001,0.001-0.002,0.002C3.594,4.049,3.592,4.051,3.59,4.053
			c0,0.001-0.001,0.001-0.001,0.002C3.586,4.057,3.584,4.06,3.582,4.062c0,0.001,0,0.001-0.001,0.001
			c-0.005,0.006-0.01,0.011-0.015,0.017c0,0-0.001,0.001-0.001,0.001C3.562,4.083,3.56,4.085,3.558,4.087
			C3.557,4.088,3.557,4.088,3.557,4.089C3.554,4.091,3.552,4.093,3.55,4.095c0,0-0.001,0.001-0.001,0.001
			C3.546,4.1,3.544,4.102,3.542,4.104c0,0,0,0-0.001,0.001C3.536,4.11,3.531,4.116,3.526,4.121c0,0,0,0.001-0.001,0.001
			C3.522,4.125,3.521,4.127,3.518,4.129c0,0-0.001,0.001-0.001,0.001C3.515,4.133,3.513,4.135,3.511,4.138
			C3.51,4.139,3.51,4.139,3.509,4.14C3.507,4.142,3.505,4.144,3.503,4.146c0,0.001-0.001,0.001-0.002,0.002
			c-0.005,0.006-0.01,0.011-0.015,0.017c0,0,0,0,0,0C3.483,4.167,3.481,4.17,3.479,4.172c0,0.001-0.001,0.001-0.001,0.002
			C3.475,4.176,3.473,4.178,3.471,4.18c0,0.001-0.001,0.002-0.002,0.002C3.467,4.185,3.465,4.187,3.463,4.188
			c0,0.001-0.001,0.001-0.001,0.001C3.454,4.198,3.446,4.207,3.439,4.215c0,0-0.001,0.001-0.001,0.001
			C3.436,4.219,3.434,4.221,3.432,4.223C3.431,4.224,3.43,4.224,3.43,4.225C3.428,4.227,3.426,4.229,3.424,4.231
			c0,0-0.001,0.001-0.001,0.002C3.42,4.236,3.417,4.238,3.415,4.241v0C3.41,4.247,3.405,4.252,3.399,4.258
			c0,0.001,0,0.001-0.001,0.001C3.396,4.261,3.394,4.264,3.392,4.266c0,0.001-0.001,0.001-0.001,0.002
			C3.389,4.27,3.386,4.272,3.384,4.274c0,0-0.001,0.001-0.001,0.002C3.381,4.278,3.379,4.28,3.377,4.282
			c0,0.001-0.001,0.002-0.002,0.002C3.37,4.29,3.365,4.295,3.36,4.301c0,0.001,0,0.001-0.001,0.001
			C3.357,4.305,3.355,4.307,3.353,4.309c0,0.001-0.001,0.002-0.002,0.003C3.35,4.313,3.348,4.315,3.346,4.317
			c0,0.001-0.001,0.001-0.002,0.002C3.342,4.322,3.34,4.324,3.338,4.326c0,0-0.001,0.001-0.001,0.001
			C3.334,4.33,3.332,4.333,3.329,4.336c0,0,0,0,0,0C3.327,4.339,3.324,4.341,3.321,4.344c0,0-0.001,0.001-0.001,0.001
			C3.318,4.348,3.316,4.35,3.314,4.352c0,0-0.002,0.002-0.002,0.002C3.311,4.356,3.309,4.358,3.307,4.36
			c0,0.001-0.001,0.002-0.002,0.002C3.303,4.365,3.301,4.367,3.299,4.369c0,0-0.001,0.001-0.002,0.002
			C3.295,4.374,3.293,4.376,3.291,4.379h0C3.288,4.382,3.285,4.385,3.283,4.388h0C3.28,4.391,3.278,4.393,3.275,4.396
			c0,0.001-0.001,0.002-0.002,0.002C3.272,4.4,3.27,4.402,3.268,4.404c0,0.001-0.001,0.001-0.002,0.002
			C3.264,4.408,3.262,4.411,3.261,4.412c0,0.001-0.001,0.002-0.002,0.003C3.257,4.417,3.255,4.419,3.253,4.421
			c0,0-0.001,0.002-0.002,0.002c-0.005,0.006-0.01,0.011-0.015,0.017c0,0.001-0.001,0.001-0.002,0.002
			C3.233,4.443,3.231,4.446,3.229,4.448c0,0.001-0.001,0.001-0.002,0.002C3.226,4.452,3.224,4.454,3.223,4.456
			C3.222,4.457,3.221,4.458,3.22,4.459C3.218,4.46,3.217,4.462,3.215,4.464C3.214,4.465,3.214,4.466,3.213,4.467
			C3.208,4.473,3.204,4.478,3.199,4.483C3.198,4.484,3.197,4.485,3.196,4.486C3.195,4.488,3.193,4.489,3.191,4.491
			c0,0.001-0.002,0.002-0.002,0.003C3.188,4.496,3.186,4.498,3.184,4.5c0,0.001-0.001,0.002-0.002,0.002
			C3.18,4.505,3.179,4.507,3.177,4.509C3.176,4.51,3.175,4.51,3.175,4.511C3.172,4.513,3.17,4.516,3.168,4.518c0,0,0,0-0.001,0.001
			C3.165,4.522,3.163,4.524,3.161,4.527C3.16,4.528,3.159,4.529,3.158,4.53C3.157,4.532,3.155,4.534,3.153,4.536
			C3.152,4.537,3.152,4.537,3.151,4.538C3.149,4.54,3.148,4.542,3.146,4.544C3.145,4.545,3.145,4.546,3.144,4.547
			C3.142,4.549,3.141,4.55,3.139,4.552C3.138,4.553,3.137,4.554,3.136,4.556C3.135,4.557,3.133,4.559,3.132,4.561
			C3.131,4.562,3.13,4.562,3.129,4.563C3.127,4.566,3.125,4.569,3.123,4.571C3.122,4.572,3.121,4.573,3.12,4.574
			C3.119,4.576,3.117,4.578,3.115,4.58C3.114,4.581,3.114,4.582,3.113,4.583C3.111,4.584,3.11,4.586,3.108,4.588
			C3.107,4.589,3.106,4.59,3.106,4.591C3.104,4.593,3.103,4.595,3.101,4.597C3.1,4.598,3.1,4.599,3.099,4.6
			C3.097,4.602,3.095,4.604,3.094,4.605c0,0-0.001,0.002-0.002,0.002C3.089,4.61,3.087,4.613,3.084,4.616c0,0,0,0,0,0.001
			C3.082,4.62,3.08,4.622,3.078,4.624C3.077,4.625,3.076,4.626,3.075,4.627C3.074,4.629,3.072,4.631,3.071,4.632
			C3.07,4.634,3.069,4.635,3.068,4.636C3.066,4.638,3.065,4.639,3.063,4.641c0,0.001-0.002,0.002-0.002,0.003
			C3.059,4.646,3.058,4.648,3.056,4.65c0,0-0.001,0.001-0.002,0.002C3.049,4.658,3.045,4.663,3.04,4.669
			C3.039,4.67,3.039,4.671,3.038,4.672C3.036,4.673,3.035,4.676,3.033,4.678c0,0-0.001,0.001-0.002,0.002
			C3.029,4.682,3.027,4.684,3.026,4.686C3.025,4.687,3.024,4.688,3.023,4.688C3.022,4.69,3.021,4.692,3.019,4.694
			c0,0.001-0.001,0.002-0.002,0.003C3.015,4.699,3.013,4.701,3.011,4.704c0,0-0.001,0.001-0.001,0.001
			C3.007,4.708,3.005,4.711,3.002,4.714c0,0-0.001,0.001-0.001,0.001C3,4.718,2.998,4.72,2.996,4.722c0,0-0.001,0.002-0.002,0.002
			C2.992,4.727,2.99,4.729,2.988,4.73c0,0.001-0.001,0.002-0.002,0.003C2.984,4.735,2.983,4.737,2.981,4.739
			c0,0.001-0.001,0.002-0.001,0.002C2.978,4.744,2.975,4.747,2.973,4.75l0,0C2.97,4.753,2.968,4.756,2.965,4.759l0,0.001
			C2.962,4.762,2.96,4.765,2.958,4.768c0,0-0.001,0.001-0.002,0.002C2.955,4.771,2.953,4.773,2.952,4.775
			C2.951,4.777,2.95,4.777,2.949,4.778C2.947,4.78,2.946,4.782,2.944,4.784c0,0.001-0.001,0.002-0.002,0.003
			C2.94,4.789,2.939,4.791,2.937,4.793c0,0.001-0.001,0.002-0.002,0.002C2.933,4.798,2.931,4.801,2.928,4.804c0,0,0,0,0,0
			C2.926,4.807,2.924,4.81,2.922,4.812C2.921,4.813,2.92,4.814,2.919,4.815C2.917,4.817,2.916,4.819,2.915,4.821
			c0,0-0.001,0.002-0.002,0.003C2.911,4.825,2.909,4.827,2.908,4.829c0,0.001-0.002,0.002-0.002,0.003
			C2.904,4.834,2.902,4.836,2.9,4.838c0,0.001-0.001,0.002-0.002,0.003C2.896,4.843,2.895,4.845,2.893,4.848
			C2.892,4.849,2.891,4.85,2.89,4.851C2.888,4.854,2.887,4.855,2.885,4.857c0,0.001-0.001,0.002-0.002,0.003
			C2.881,4.862,2.879,4.864,2.878,4.866C2.877,4.867,2.876,4.868,2.875,4.869C2.874,4.871,2.873,4.873,2.871,4.875
			C2.87,4.875,2.869,4.877,2.869,4.878C2.867,4.88,2.866,4.881,2.864,4.883C2.863,4.884,2.863,4.885,2.861,4.887
			S2.857,4.891,2.856,4.894c0,0,0,0-0.001,0.001C2.853,4.897,2.851,4.9,2.849,4.903C2.847,4.904,2.847,4.905,2.846,4.906
			C2.844,4.908,2.843,4.909,2.842,4.911C2.84,4.913,2.84,4.914,2.839,4.915C2.837,4.917,2.836,4.918,2.835,4.92
			C2.834,4.921,2.833,4.922,2.832,4.923C2.831,4.925,2.829,4.927,2.828,4.929c0,0.001-0.001,0.002-0.002,0.003
			C2.824,4.934,2.822,4.936,2.82,4.938c0,0.001-0.001,0.001-0.002,0.002C2.816,4.943,2.814,4.946,2.812,4.948
			C2.811,4.949,2.811,4.95,2.81,4.951C2.809,4.953,2.807,4.955,2.805,4.957C2.804,4.958,2.803,4.959,2.802,4.961
			C2.801,4.962,2.8,4.964,2.798,4.966C2.797,4.967,2.797,4.968,2.796,4.969C2.794,4.971,2.793,4.973,2.792,4.974
			C2.791,4.976,2.79,4.977,2.789,4.978C2.788,4.979,2.786,4.981,2.784,4.983c0,0.001-0.001,0.002-0.002,0.002
			C2.78,4.988,2.779,4.991,2.777,4.993C2.775,4.995,2.774,4.996,2.773,4.998C2.772,5,2.771,5.001,2.769,5.003
			C2.768,5.004,2.768,5.005,2.767,5.006C2.765,5.008,2.764,5.01,2.763,5.011S2.761,5.014,2.76,5.015
			C2.758,5.017,2.757,5.019,2.756,5.02S2.754,5.022,2.753,5.023C2.751,5.025,2.75,5.027,2.749,5.028
			C2.748,5.029,2.747,5.031,2.746,5.032C2.745,5.034,2.743,5.036,2.742,5.038C2.74,5.04,2.739,5.041,2.738,5.043
			S2.735,5.047,2.733,5.049C2.732,5.05,2.731,5.051,2.73,5.053C2.729,5.054,2.728,5.056,2.727,5.057
			C2.726,5.059,2.725,5.06,2.724,5.062C2.722,5.063,2.721,5.064,2.72,5.065C2.719,5.067,2.718,5.068,2.717,5.07
			C2.716,5.071,2.714,5.073,2.713,5.074C2.712,5.076,2.711,5.077,2.71,5.078C2.709,5.08,2.708,5.082,2.706,5.084
			C2.705,5.085,2.704,5.087,2.703,5.088C2.701,5.091,2.699,5.093,2.697,5.095C2.696,5.097,2.696,5.097,2.695,5.099
			C2.693,5.1,2.692,5.102,2.691,5.104C2.69,5.104,2.689,5.106,2.688,5.107C2.687,5.109,2.686,5.11,2.684,5.112
			C2.683,5.113,2.683,5.115,2.681,5.116C2.68,5.117,2.679,5.119,2.678,5.121C2.677,5.122,2.676,5.123,2.675,5.125
			C2.673,5.126,2.672,5.128,2.671,5.13C2.67,5.131,2.669,5.132,2.668,5.133C2.666,5.136,2.664,5.139,2.662,5.141
			C2.661,5.143,2.66,5.145,2.659,5.146C2.658,5.147,2.657,5.148,2.656,5.149C2.655,5.151,2.653,5.153,2.652,5.154
			C2.651,5.155,2.65,5.157,2.649,5.158C2.648,5.16,2.647,5.161,2.646,5.163C2.645,5.164,2.644,5.166,2.642,5.167
			C2.641,5.168,2.641,5.17,2.64,5.171C2.638,5.173,2.637,5.174,2.636,5.176S2.634,5.179,2.633,5.18
			C2.63,5.183,2.629,5.185,2.626,5.188c0,0.001-0.001,0.001-0.002,0.002C2.623,5.192,2.622,5.194,2.62,5.196
			C2.619,5.198,2.618,5.199,2.617,5.2C2.616,5.202,2.615,5.203,2.614,5.205C2.613,5.207,2.612,5.208,2.611,5.209
			C2.609,5.21,2.608,5.212,2.607,5.213C2.606,5.215,2.605,5.216,2.604,5.218C2.603,5.22,2.602,5.221,2.601,5.223
			C2.6,5.224,2.599,5.225,2.598,5.227C2.593,5.232,2.589,5.238,2.585,5.243C2.584,5.244,2.583,5.245,2.583,5.246
			C2.582,5.248,2.58,5.25,2.579,5.252C2.578,5.253,2.577,5.254,2.576,5.256C2.574,5.257,2.573,5.259,2.572,5.261
			C2.571,5.262,2.57,5.263,2.569,5.265C2.568,5.266,2.567,5.268,2.565,5.27C2.564,5.271,2.563,5.272,2.562,5.273
			S2.56,5.276,2.559,5.278C2.558,5.28,2.556,5.282,2.555,5.283C2.554,5.285,2.552,5.288,2.55,5.29
			C2.549,5.291,2.548,5.293,2.547,5.294C2.546,5.296,2.545,5.297,2.543,5.299c0,0.001-0.001,0.002-0.002,0.004
			C2.54,5.304,2.539,5.306,2.538,5.308C2.537,5.309,2.535,5.31,2.534,5.312C2.533,5.313,2.532,5.314,2.531,5.316
			C2.53,5.317,2.529,5.319,2.528,5.32S2.525,5.324,2.524,5.325C2.523,5.327,2.522,5.327,2.521,5.329
			C2.52,5.332,2.518,5.334,2.516,5.337C2.515,5.338,2.514,5.339,2.513,5.34C2.512,5.342,2.511,5.344,2.509,5.346
			C2.508,5.347,2.507,5.349,2.506,5.35C2.505,5.352,2.504,5.353,2.502,5.354C2.501,5.356,2.501,5.357,2.5,5.358
			C2.499,5.36,2.498,5.361,2.496,5.363C2.495,5.365,2.494,5.366,2.493,5.367C2.492,5.369,2.491,5.371,2.49,5.373
			S2.488,5.375,2.487,5.376C2.485,5.378,2.483,5.381,2.481,5.383C2.48,5.385,2.479,5.386,2.479,5.388S2.476,5.392,2.475,5.393
			C2.474,5.395,2.473,5.396,2.472,5.396C2.471,5.398,2.47,5.4,2.469,5.401C2.467,5.403,2.466,5.404,2.465,5.406
			C2.464,5.407,2.463,5.409,2.462,5.41C2.461,5.412,2.46,5.413,2.459,5.415S2.457,5.418,2.456,5.419
			C2.455,5.421,2.454,5.422,2.453,5.423S2.45,5.427,2.449,5.429C2.447,5.431,2.445,5.434,2.444,5.436
			C2.443,5.438,2.441,5.438,2.44,5.44S2.438,5.443,2.437,5.445C2.436,5.446,2.436,5.447,2.435,5.449
			C2.433,5.45,2.433,5.452,2.431,5.453C2.43,5.455,2.429,5.456,2.428,5.458C2.427,5.459,2.426,5.461,2.425,5.462
			C2.424,5.464,2.422,5.465,2.421,5.467C2.42,5.468,2.419,5.47,2.419,5.471C2.417,5.473,2.416,5.475,2.415,5.477
			C2.414,5.478,2.413,5.479,2.412,5.48C2.41,5.482,2.408,5.485,2.406,5.488c0,0-0.001,0.002-0.002,0.002
			C2.403,5.493,2.401,5.495,2.4,5.497C2.399,5.498,2.398,5.499,2.397,5.5S2.395,5.504,2.394,5.506
			C2.393,5.507,2.392,5.508,2.391,5.51C2.39,5.511,2.389,5.513,2.388,5.514S2.386,5.517,2.385,5.519
			C2.383,5.521,2.382,5.522,2.381,5.523C2.38,5.525,2.379,5.526,2.378,5.527C2.376,5.53,2.375,5.533,2.373,5.536
			C2.372,5.537,2.371,5.538,2.37,5.539C2.369,5.541,2.368,5.543,2.366,5.544C2.365,5.546,2.365,5.547,2.364,5.548
			C2.362,5.55,2.361,5.551,2.36,5.553C2.359,5.555,2.358,5.556,2.357,5.558C2.356,5.559,2.355,5.561,2.354,5.562
			S2.352,5.564,2.351,5.566C2.35,5.568,2.349,5.569,2.348,5.571C2.347,5.572,2.346,5.574,2.345,5.575
			C2.343,5.578,2.341,5.581,2.339,5.583c0,0.001-0.001,0.002-0.002,0.003C2.335,5.588,2.334,5.59,2.333,5.592
			C2.332,5.594,2.331,5.595,2.33,5.597C2.329,5.598,2.328,5.6,2.327,5.602C2.326,5.603,2.325,5.604,2.324,5.605
			S2.321,5.608,2.32,5.61C2.319,5.611,2.318,5.613,2.318,5.614C2.316,5.616,2.315,5.618,2.314,5.62
			C2.313,5.621,2.312,5.622,2.312,5.623C2.31,5.625,2.309,5.627,2.307,5.629C2.306,5.631,2.305,5.633,2.304,5.634
			C2.302,5.636,2.301,5.639,2.299,5.641c0,0.001-0.001,0.002-0.002,0.003C2.296,5.646,2.294,5.647,2.293,5.649
			C2.292,5.65,2.291,5.652,2.291,5.653C2.29,5.655,2.288,5.657,2.287,5.658C2.286,5.659,2.285,5.661,2.285,5.662
			C2.283,5.664,2.282,5.666,2.281,5.667C2.28,5.669,2.279,5.67,2.278,5.671C2.276,5.674,2.274,5.676,2.273,5.679
			c0,0,0,0.001,0,0.001C2.27,5.683,2.269,5.686,2.266,5.688c0,0.001-0.001,0.002-0.002,0.003C2.263,5.693,2.261,5.696,2.26,5.698
			c0,0.001-0.001,0.002-0.002,0.003C2.256,5.703,2.255,5.705,2.254,5.706C2.253,5.708,2.252,5.709,2.251,5.71
			C2.25,5.712,2.249,5.714,2.248,5.716C2.247,5.717,2.246,5.718,2.245,5.719C2.244,5.721,2.242,5.724,2.241,5.726
			C2.24,5.727,2.24,5.727,2.239,5.729C2.237,5.731,2.235,5.734,2.233,5.737C2.232,5.738,2.232,5.738,2.231,5.739
			C2.23,5.742,2.229,5.744,2.227,5.746c0,0.001-0.001,0.002-0.002,0.004C2.224,5.751,2.222,5.753,2.221,5.755
			C2.22,5.756,2.22,5.757,2.219,5.759C2.217,5.761,2.216,5.762,2.215,5.764C2.214,5.766,2.213,5.767,2.212,5.768
			C2.211,5.77,2.209,5.772,2.208,5.774c0,0-0.001,0.001-0.001,0.002C2.205,5.779,2.203,5.782,2.201,5.785
			c0,0.001-0.001,0.002-0.002,0.003C2.197,5.791,2.196,5.792,2.194,5.794c0,0.001-0.001,0.002-0.002,0.003
			C2.191,5.8,2.189,5.802,2.188,5.804c0,0.001-0.002,0.002-0.002,0.003C2.185,5.809,2.184,5.811,2.182,5.812
			c0,0.001-0.001,0.003-0.002,0.004C2.179,5.818,2.178,5.819,2.176,5.821c0,0.001-0.001,0.003-0.002,0.004
			C2.172,5.828,2.17,5.83,2.169,5.833C2.168,5.834,2.167,5.835,2.167,5.836C2.165,5.839,2.164,5.841,2.162,5.843
			C2.161,5.844,2.16,5.846,2.16,5.847C2.159,5.849,2.157,5.851,2.156,5.852C2.155,5.853,2.154,5.854,2.154,5.855
			C2.152,5.857,2.151,5.859,2.15,5.861c0,0.001-0.002,0.003-0.002,0.004C2.146,5.867,2.145,5.869,2.144,5.871
			c0,0.001-0.001,0.002-0.002,0.003C2.14,5.876,2.139,5.879,2.137,5.881c0,0.001-0.001,0.002-0.002,0.003
			C2.133,5.886,2.132,5.889,2.13,5.892c0,0.001-0.002,0.003-0.003,0.004S2.125,5.899,2.124,5.9C2.123,5.902,2.122,5.903,2.121,5.905
			C2.12,5.907,2.119,5.908,2.118,5.91S2.116,5.913,2.115,5.914C2.114,5.916,2.113,5.917,2.112,5.918S2.11,5.922,2.109,5.923
			S2.107,5.927,2.106,5.928S2.104,5.931,2.104,5.932C2.102,5.935,2.1,5.938,2.098,5.94C2.097,5.942,2.096,5.943,2.095,5.944
			C2.094,5.946,2.093,5.948,2.092,5.95c0,0.001-0.001,0.003-0.002,0.004C2.088,5.956,2.087,5.957,2.086,5.959
			C2.085,5.96,2.084,5.962,2.083,5.963c0,0.002-0.002,0.004-0.003,0.005C2.079,5.969,2.078,5.971,2.078,5.972
			C2.076,5.974,2.075,5.976,2.074,5.977S2.073,5.979,2.071,5.981C2.069,5.984,2.068,5.987,2.066,5.99
			c0,0.001-0.001,0.002-0.002,0.003C2.062,5.995,2.062,5.997,2.06,5.999C2.06,6,2.059,6.001,2.058,6.002
			C2.057,6.005,2.055,6.007,2.054,6.009C2.053,6.01,2.053,6.011,2.052,6.012C2.051,6.014,2.049,6.016,2.048,6.018
			C2.047,6.019,2.046,6.02,2.046,6.021C2.045,6.023,2.043,6.025,2.042,6.026C2.042,6.028,2.041,6.029,2.04,6.03
			C2.039,6.033,2.037,6.035,2.036,6.037S2.033,6.041,2.032,6.043C2.031,6.044,2.03,6.046,2.029,6.048
			C2.028,6.05,2.026,6.052,2.026,6.053C2.025,6.054,2.024,6.056,2.023,6.057S2.021,6.061,2.02,6.062S2.018,6.065,2.017,6.066
			S2.015,6.069,2.014,6.071S2.012,6.074,2.011,6.076C2.01,6.077,2.009,6.079,2.008,6.08C2.007,6.082,2.006,6.084,2.005,6.086
			C2.004,6.087,2.003,6.089,2.001,6.091S1.999,6.095,1.997,6.098c0,0.001-0.001,0.003-0.002,0.004
			C1.994,6.104,1.993,6.105,1.991,6.107c0,0.001-0.001,0.003-0.002,0.004S1.987,6.114,1.986,6.116S1.984,6.119,1.983,6.121
			S1.981,6.124,1.98,6.125C1.979,6.126,1.978,6.128,1.977,6.13C1.976,6.131,1.975,6.133,1.974,6.134S1.972,6.137,1.972,6.139
			C1.97,6.142,1.968,6.145,1.966,6.147C1.965,6.148,1.964,6.15,1.963,6.151C1.962,6.153,1.961,6.155,1.96,6.156
			S1.958,6.16,1.958,6.161C1.957,6.162,1.956,6.164,1.955,6.166S1.953,6.169,1.952,6.17C1.951,6.171,1.95,6.173,1.949,6.175
			C1.948,6.176,1.947,6.178,1.946,6.18C1.945,6.181,1.944,6.183,1.943,6.184C1.942,6.186,1.941,6.187,1.94,6.188
			C1.939,6.19,1.938,6.192,1.937,6.195S1.934,6.199,1.933,6.201C1.932,6.203,1.931,6.205,1.93,6.206
			C1.929,6.208,1.927,6.209,1.927,6.211C1.926,6.212,1.925,6.214,1.924,6.215C1.923,6.217,1.922,6.219,1.921,6.221
			C1.92,6.222,1.919,6.223,1.918,6.225C1.917,6.226,1.917,6.228,1.915,6.229c0,0.001-0.001,0.003-0.002,0.004
			C1.912,6.235,1.911,6.236,1.91,6.238S1.908,6.242,1.907,6.243C1.905,6.246,1.903,6.249,1.901,6.251
			c0,0.001-0.001,0.003-0.002,0.004C1.898,6.258,1.897,6.259,1.896,6.261C1.895,6.263,1.894,6.264,1.893,6.266
			c0,0.001-0.001,0.003-0.002,0.004C1.89,6.271,1.889,6.273,1.888,6.275C1.886,6.276,1.886,6.277,1.885,6.279
			C1.884,6.281,1.883,6.282,1.882,6.284S1.88,6.287,1.879,6.289c0,0.001-0.001,0.002-0.002,0.003
			C1.875,6.295,1.873,6.299,1.871,6.303c0,0.001-0.001,0.002-0.002,0.003C1.867,6.308,1.867,6.31,1.865,6.311
			c0,0.001-0.001,0.002-0.002,0.004C1.862,6.317,1.861,6.318,1.86,6.32C1.859,6.322,1.858,6.323,1.857,6.324
			C1.856,6.326,1.855,6.328,1.854,6.33c0,0.001-0.001,0.002-0.002,0.003C1.851,6.335,1.85,6.337,1.849,6.339
			c0,0.001-0.001,0.002-0.002,0.003c-0.004,0.006-0.008,0.014-0.012,0.02c0,0.001-0.001,0.002-0.001,0.003
			C1.832,6.367,1.831,6.369,1.829,6.371c0,0.001-0.001,0.002-0.001,0.003C1.826,6.376,1.825,6.378,1.824,6.381
			c0,0-0.001,0.001-0.001,0.002C1.821,6.385,1.82,6.387,1.818,6.389c0,0.001-0.001,0.002-0.002,0.003
			C1.814,6.396,1.812,6.4,1.81,6.403c0,0.001-0.001,0.002-0.002,0.004C1.807,6.408,1.806,6.41,1.805,6.412
			c0,0.001-0.001,0.003-0.002,0.004C1.802,6.418,1.801,6.419,1.8,6.421S1.798,6.424,1.797,6.425
			C1.796,6.427,1.795,6.429,1.794,6.431c0,0.001-0.001,0.002-0.002,0.004C1.791,6.436,1.79,6.438,1.789,6.439
			c0,0.001-0.001,0.003-0.002,0.004C1.785,6.445,1.784,6.447,1.783,6.449c0,0,0,0.001-0.001,0.001
			C1.78,6.455,1.777,6.459,1.775,6.463c0,0.001-0.001,0.002-0.002,0.003C1.772,6.468,1.771,6.47,1.77,6.472
			C1.769,6.473,1.769,6.475,1.768,6.476C1.767,6.478,1.766,6.479,1.765,6.481S1.763,6.483,1.762,6.485S1.76,6.488,1.759,6.49
			C1.758,6.492,1.758,6.493,1.757,6.494C1.756,6.496,1.755,6.498,1.753,6.5c0,0.001-0.001,0.002-0.002,0.004S1.748,6.51,1.747,6.512
			C1.746,6.514,1.745,6.516,1.744,6.517C1.742,6.519,1.742,6.521,1.741,6.522C1.74,6.523,1.739,6.525,1.738,6.526
			C1.737,6.528,1.736,6.53,1.735,6.532c0,0.001-0.001,0.002-0.002,0.004C1.731,6.537,1.731,6.539,1.729,6.541
			c0,0.001-0.001,0.003-0.002,0.004S1.725,6.549,1.724,6.55S1.723,6.553,1.722,6.555C1.721,6.556,1.72,6.558,1.719,6.56
			C1.717,6.562,1.716,6.565,1.714,6.568C1.713,6.57,1.712,6.571,1.711,6.573C1.71,6.574,1.709,6.576,1.708,6.577
			C1.708,6.579,1.707,6.581,1.706,6.583S1.704,6.585,1.703,6.587c0,0.001-0.002,0.003-0.002,0.005
			C1.7,6.593,1.699,6.595,1.698,6.597c0,0.001-0.002,0.003-0.002,0.004C1.694,6.603,1.693,6.604,1.692,6.606S1.691,6.609,1.69,6.61
			S1.688,6.613,1.687,6.615c-0.001,0.003-0.003,0.006-0.005,0.01c0,0.001-0.001,0.002-0.002,0.003
			C1.679,6.63,1.678,6.632,1.677,6.634C1.676,6.635,1.675,6.637,1.674,6.638C1.673,6.64,1.673,6.641,1.671,6.643
			c0,0.002-0.001,0.003-0.002,0.005C1.668,6.649,1.667,6.65,1.667,6.652C1.666,6.653,1.665,6.655,1.664,6.657
			S1.662,6.66,1.661,6.662S1.659,6.665,1.658,6.667C1.657,6.669,1.655,6.672,1.654,6.674C1.653,6.676,1.652,6.678,1.651,6.68
			C1.65,6.681,1.649,6.684,1.648,6.685C1.647,6.686,1.646,6.688,1.646,6.688C1.645,6.69,1.644,6.692,1.643,6.694
			C1.642,6.695,1.641,6.696,1.641,6.698C1.64,6.7,1.638,6.702,1.637,6.704c0,0.001-0.001,0.002-0.002,0.003
			C1.634,6.709,1.633,6.711,1.632,6.713C1.631,6.714,1.63,6.716,1.63,6.717c-0.002,0.003-0.004,0.007-0.006,0.01
			c0,0.001-0.001,0.002-0.002,0.003C1.621,6.732,1.62,6.734,1.619,6.736c0,0.001-0.001,0.002-0.002,0.004
			C1.616,6.742,1.615,6.744,1.614,6.745C1.613,6.747,1.612,6.748,1.612,6.75C1.611,6.751,1.61,6.753,1.609,6.755
			c0,0.001-0.001,0.003-0.002,0.004C1.605,6.761,1.604,6.763,1.604,6.765c0,0.001-0.001,0.002-0.002,0.003
			C1.6,6.772,1.597,6.776,1.595,6.78c0,0,0,0.001-0.001,0.002C1.593,6.784,1.592,6.786,1.591,6.788c0,0.001-0.001,0.002-0.002,0.004
			C1.588,6.793,1.587,6.795,1.586,6.797C1.585,6.798,1.584,6.8,1.583,6.801C1.583,6.803,1.582,6.805,1.581,6.806
			c0,0.001-0.001,0.003-0.002,0.005S1.577,6.814,1.576,6.815C1.575,6.817,1.574,6.819,1.573,6.82c0,0.002-0.001,0.003-0.002,0.005
			C1.569,6.828,1.567,6.831,1.565,6.834C1.564,6.836,1.564,6.837,1.563,6.839C1.562,6.84,1.562,6.842,1.561,6.843
			S1.559,6.847,1.558,6.849c0,0.001-0.001,0.003-0.002,0.004C1.555,6.854,1.554,6.856,1.553,6.858
			C1.552,6.859,1.551,6.86,1.551,6.861C1.55,6.863,1.548,6.866,1.547,6.868c0,0.001-0.001,0.002-0.002,0.003
			C1.544,6.873,1.543,6.875,1.542,6.877c0,0.001-0.001,0.002-0.002,0.003C1.539,6.884,1.537,6.888,1.535,6.891
			c0,0.001-0.001,0.002-0.002,0.004C1.532,6.897,1.531,6.898,1.53,6.9c0,0.001-0.001,0.003-0.002,0.004
			C1.527,6.906,1.525,6.908,1.524,6.91c0,0.001-0.001,0.002-0.002,0.003C1.521,6.916,1.521,6.917,1.52,6.919
			c0,0.002-0.001,0.003-0.002,0.004C1.517,6.925,1.516,6.927,1.515,6.929c0,0.001-0.001,0.001-0.001,0.002
			C1.511,6.936,1.509,6.94,1.506,6.945c0,0,0,0.001-0.001,0.001c0,0.002-0.002,0.004-0.003,0.006c0,0.001-0.001,0.003-0.002,0.004
			C1.499,6.958,1.498,6.96,1.497,6.962c0,0.001-0.001,0.003-0.002,0.004C1.494,6.968,1.493,6.97,1.492,6.971S1.491,6.974,1.49,6.975
			C1.489,6.978,1.488,6.979,1.487,6.981c0,0-0.001,0.001-0.001,0.002C1.482,6.991,1.478,6.998,1.475,7.005
			C1.474,7.006,1.473,7.007,1.473,7.008C1.472,7.01,1.471,7.013,1.47,7.014S1.468,7.017,1.468,7.018
			C1.467,7.02,1.466,7.021,1.465,7.023c0,0.001-0.001,0.002-0.002,0.003C1.462,7.029,1.46,7.031,1.459,7.033
			c0,0.001,0,0.001,0,0.001C1.455,7.042,1.451,7.05,1.447,7.057c0,0.001-0.001,0.003-0.002,0.004
			C1.444,7.062,1.443,7.064,1.442,7.066c0,0.001-0.001,0.002-0.002,0.003C1.439,7.072,1.438,7.073,1.438,7.076
			c0,0.001-0.001,0.002-0.002,0.003C1.435,7.081,1.434,7.083,1.433,7.085c0,0.002-0.001,0.003-0.002,0.004
			C1.43,7.091,1.429,7.093,1.428,7.095c0,0.001-0.001,0.003-0.002,0.004C1.424,7.103,1.421,7.106,1.42,7.11
			c0,0.001-0.001,0.001-0.001,0.002C1.417,7.115,1.417,7.117,1.416,7.119C1.415,7.12,1.414,7.121,1.414,7.122
			C1.413,7.124,1.412,7.126,1.411,7.128c0,0.001-0.001,0.003-0.002,0.004C1.408,7.134,1.407,7.136,1.406,7.138
			c0,0.001-0.001,0.002-0.002,0.004C1.403,7.144,1.402,7.145,1.401,7.147c0,0,0,0.001-0.001,0.002
			C1.397,7.154,1.396,7.158,1.393,7.163c0,0.001-0.001,0.001-0.001,0.002C1.391,7.167,1.39,7.169,1.389,7.171
			c0,0.001-0.001,0.003-0.001,0.004C1.386,7.177,1.385,7.179,1.384,7.181c0,0.001-0.001,0.002-0.001,0.003
			C1.381,7.187,1.38,7.188,1.379,7.19c0,0.001-0.001,0.002-0.001,0.003C1.376,7.195,1.375,7.198,1.375,7.2c0,0,0,0.001-0.001,0.001
			C1.37,7.209,1.366,7.217,1.362,7.225C1.361,7.226,1.361,7.227,1.36,7.228c0,0.002-0.002,0.004-0.002,0.006
			C1.357,7.234,1.356,7.236,1.356,7.237C1.354,7.239,1.354,7.241,1.353,7.243C1.352,7.244,1.352,7.245,1.351,7.246
			C1.35,7.248,1.349,7.25,1.348,7.252c0,0.001-0.001,0.002-0.001,0.003C1.343,7.263,1.339,7.271,1.335,7.278
			c0,0,0,0.001-0.001,0.002C1.333,7.282,1.333,7.284,1.331,7.286c0,0.001-0.001,0.002-0.001,0.004
			C1.329,7.292,1.328,7.294,1.327,7.295c0,0.001-0.001,0.002-0.002,0.004C1.324,7.301,1.323,7.303,1.322,7.305
			C1.321,7.307,1.321,7.308,1.32,7.31S1.318,7.312,1.317,7.314c0,0.001-0.001,0.002-0.001,0.003C1.314,7.321,1.312,7.326,1.31,7.331
			c0,0-0.001,0.001-0.001,0.002C1.307,7.335,1.307,7.337,1.306,7.339C1.305,7.34,1.304,7.342,1.304,7.343
			C1.303,7.345,1.302,7.347,1.301,7.349C1.3,7.35,1.3,7.351,1.299,7.352C1.298,7.354,1.297,7.356,1.296,7.358
			c0,0.001-0.001,0.002-0.001,0.003C1.293,7.363,1.292,7.366,1.292,7.368c0,0,0,0,0,0c-0.002,0.005-0.005,0.01-0.007,0.016
			c0,0,0,0.001-0.001,0.001C1.282,7.388,1.281,7.39,1.28,7.393c0,0.001-0.001,0.002-0.002,0.003
			C1.277,7.398,1.276,7.399,1.275,7.402c0,0.001-0.001,0.002-0.001,0.003C1.272,7.407,1.271,7.409,1.271,7.411
			c0,0.001-0.001,0.002-0.001,0.003C1.268,7.417,1.267,7.419,1.266,7.421c0,0.001,0,0.001,0,0.002
			C1.261,7.431,1.257,7.438,1.253,7.447c0,0,0,0.001,0,0.001C1.251,7.451,1.25,7.453,1.249,7.456c0,0,0,0.001-0.001,0.002
			C1.247,7.46,1.246,7.463,1.245,7.465c0,0.001-0.001,0.002-0.001,0.002C1.243,7.47,1.242,7.472,1.24,7.475c0,0,0,0.001,0,0.001
			C1.236,7.484,1.232,7.493,1.228,7.501c0,0,0,0,0,0.001C1.226,7.504,1.225,7.506,1.224,7.509c0,0.001-0.001,0.002-0.001,0.003
			C1.222,7.514,1.221,7.516,1.22,7.518c0,0.001-0.001,0.002-0.001,0.003C1.217,7.523,1.216,7.525,1.215,7.528
			c0,0,0,0.001-0.001,0.001C1.21,7.538,1.207,7.546,1.203,7.555v0C1.201,7.558,1.2,7.56,1.199,7.562
			c0,0.001-0.001,0.002-0.001,0.002C1.197,7.567,1.196,7.569,1.195,7.572c0,0.001-0.001,0.001-0.001,0.002
			C1.192,7.577,1.191,7.579,1.19,7.582c0,0-0.001,0.001-0.001,0.002C1.188,7.586,1.187,7.588,1.186,7.591l0,0.001
			C1.182,7.6,1.178,7.609,1.174,7.617l0,0.001C1.172,7.621,1.171,7.623,1.17,7.626c0,0,0,0.001-0.001,0.002
			C1.168,7.63,1.167,7.633,1.166,7.635c0,0,0,0.001-0.001,0.002C1.164,7.64,1.163,7.642,1.161,7.645c0,0.001,0,0.001,0,0.001
			C1.157,7.654,1.153,7.662,1.149,7.671l0,0.001C1.147,7.675,1.146,7.677,1.146,7.68c0,0.001,0,0.001-0.001,0.002
			C1.144,7.684,1.142,7.687,1.141,7.689c0,0,0,0.001-0.001,0.001C1.139,7.693,1.138,7.696,1.137,7.699v0
			C1.132,7.708,1.129,7.717,1.125,7.726l0,0C1.124,7.729,1.122,7.731,1.121,7.733c0,0.001,0,0.001-0.001,0.002
			C1.119,7.738,1.118,7.741,1.117,7.743c0,0.001,0,0.001,0,0.002C1.115,7.748,1.114,7.75,1.113,7.753c0,0,0,0,0,0
			c-0.005,0.011-0.01,0.023-0.015,0.035c0,0,0,0.001-0.001,0.001C1.095,7.792,1.094,7.795,1.093,7.797c0,0,0,0.001,0,0.001
			C1.091,7.801,1.09,7.804,1.089,7.807c0,0,0,0.001-0.001,0.002C1.083,7.82,1.078,7.831,1.073,7.842c0,0.001,0,0.001-0.001,0.002
			C1.071,7.847,1.07,7.849,1.069,7.852c0,0.001,0,0.001-0.001,0.002C1.067,7.855,1.066,7.858,1.065,7.861c0,0,0,0.001,0,0.002
			c-0.005,0.012-0.01,0.023-0.015,0.035c0,0,0,0,0,0C1.048,7.9,1.047,7.903,1.045,7.906c0,0,0,0.001,0,0.001
			C1.044,7.91,1.043,7.913,1.042,7.915c0,0.001,0,0.001,0,0.002c-0.005,0.012-0.01,0.022-0.015,0.034c0,0,0,0.001,0,0.001
			C1.024,7.955,1.023,7.958,1.022,7.96c0,0,0,0.001-0.001,0.001C1.021,7.964,1.02,7.968,1.019,7.97c0,0.001,0,0.001-0.001,0.002
			C1.017,7.975,1.016,7.977,1.014,7.979c0,0,0,0,0,0.001c-0.005,0.012-0.01,0.023-0.015,0.035c0,0,0,0,0,0.001
			C0.998,8.019,0.997,8.021,0.996,8.024c0,0.001,0,0.001-0.001,0.002C0.994,8.029,0.992,8.032,0.991,8.034l0,0
			c-0.005,0.013-0.01,0.024-0.015,0.037l0,0C0.975,8.074,0.974,8.077,0.973,8.079c0,0.001,0,0.001,0,0.002
			C0.971,8.084,0.97,8.086,0.969,8.089c0,0,0,0.001,0,0.001C0.962,8.105,0.956,8.12,0.95,8.135c0,0,0,0,0,0.001
			C0.942,8.154,0.935,8.172,0.928,8.19l0,0C0.92,8.209,0.913,8.227,0.905,8.246l0,0C0.867,8.344,0.829,8.442,0.792,8.542l0,0
			c-0.244,0.664-0.436,1.353-0.569,2.062l0.983,0.186C1.895,7.13,4.308,3.942,7.661,2.262L7.213,1.368L7.213,1.368z M1,22.59H0v12h1
			V22.59L1,22.59z M1,46.59H0v12h1V46.59L1,46.59z M1,70.59H0v12h1V70.59L1,70.59z M1,94.59H0v12h1V94.59L1,94.59z M3.538,117.357
			l-0.789,0.615c1.166,1.493,2.648,2.728,4.345,3.6c0,0,0,0,0,0c0.082,0.042,0.164,0.083,0.246,0.123l0,0.001
			c0.003,0.001,0.005,0.002,0.008,0.004h0c0.003,0.002,0.005,0.003,0.008,0.004l0,0.001c0.018,0.008,0.035,0.017,0.053,0.025
			c0,0,0,0,0,0c0.024,0.012,0.047,0.022,0.071,0.033c0,0,0,0,0,0c0.039,0.019,0.077,0.037,0.116,0.055l0,0
			c0.003,0.001,0.006,0.003,0.009,0.004l0,0c0.018,0.008,0.036,0.017,0.053,0.024c0,0,0,0,0.001,0.001
			c0.003,0.001,0.005,0.002,0.008,0.003c0,0.001,0,0.001,0.001,0.001c0.003,0.001,0.005,0.002,0.008,0.004c0,0,0,0,0,0
			c0.015,0.007,0.03,0.014,0.044,0.02c0,0.001,0,0,0,0c0.002,0.002,0.005,0.003,0.008,0.004c0,0,0,0.001,0.001,0.001
			c0.003,0.001,0.006,0.003,0.008,0.004c0,0,0,0,0,0c0.018,0.008,0.035,0.016,0.054,0.023c0,0,0,0,0,0.001
			c0.003,0.001,0.005,0.002,0.008,0.003c0,0,0.001,0.001,0.001,0.001c0.018,0.008,0.035,0.016,0.053,0.023c0,0,0,0,0,0
			c0.003,0.001,0.005,0.002,0.009,0.004l0,0c0.015,0.006,0.03,0.013,0.045,0.02l0,0c0.003,0.001,0.005,0.002,0.009,0.004h0
			c0.003,0.001,0.006,0.002,0.008,0.004c0,0,0.001,0,0.001,0c0.002,0.001,0.005,0.002,0.008,0.004c0,0,0.001,0,0.001,0
			c0.003,0.001,0.006,0.002,0.008,0.004h0c0.012,0.005,0.023,0.01,0.035,0.015c0.001,0,0.001,0.001,0.002,0.001
			c0.002,0.001,0.005,0.002,0.007,0.003c0,0,0.001,0.001,0.001,0.001c0.003,0.001,0.005,0.002,0.008,0.003
			c0,0,0.001,0.001,0.001,0.001c0.015,0.006,0.029,0.012,0.044,0.019c0,0,0,0,0,0c0.003,0.001,0.005,0.002,0.008,0.003
			c0,0,0.001,0.001,0.002,0.001c0.002,0.001,0.005,0.002,0.008,0.003c0,0.001,0,0.001,0.001,0.001
			c0.002,0.001,0.006,0.002,0.008,0.003h0c0.012,0.006,0.023,0.01,0.035,0.015c0,0.001,0.001,0.001,0.001,0.001
			c0.003,0.001,0.005,0.002,0.008,0.003c0,0.001,0.001,0.001,0.001,0.001c0.003,0.001,0.005,0.002,0.008,0.003
			c0,0,0.001,0.001,0.001,0.001c0.002,0.001,0.005,0.002,0.008,0.003l0,0c0.012,0.005,0.024,0.01,0.036,0.015c0,0,0,0,0,0.001
			c0.003,0.001,0.005,0.002,0.008,0.003c0,0,0.001,0,0.001,0c0.002,0.002,0.005,0.003,0.008,0.004c0,0,0,0,0,0
			c0.003,0.002,0.006,0.002,0.009,0.004h0c0.012,0.005,0.023,0.01,0.036,0.014c0,0.001,0.001,0.001,0.001,0.001
			c0.002,0.001,0.005,0.002,0.008,0.003c0,0,0.001,0.001,0.001,0.001c0.002,0.001,0.005,0.002,0.008,0.003c0,0,0.001,0,0.001,0.001
			c0.003,0.001,0.006,0.002,0.008,0.003c0,0,0,0,0,0c0.015,0.006,0.03,0.012,0.045,0.018c0,0,0.001,0,0.001,0.001
			c0.002,0.001,0.006,0.002,0.008,0.003h0.001c0.003,0.002,0.006,0.003,0.009,0.004c0,0,0,0,0,0c0.015,0.006,0.03,0.012,0.045,0.018
			h0c0.002,0.001,0.005,0.002,0.008,0.004c0,0,0.001,0,0.001,0c0.003,0.001,0.005,0.002,0.008,0.003c0,0,0,0.001,0.001,0.001
			c0.015,0.005,0.03,0.011,0.045,0.017c0,0,0.001,0,0.001,0.001c0.003,0,0.006,0.002,0.008,0.003c0,0,0.001,0,0.001,0
			c0.002,0.001,0.006,0.002,0.008,0.003c0.001,0,0.001,0.001,0.002,0.001c0.015,0.006,0.03,0.011,0.045,0.017h0
			c0.003,0.001,0.006,0.002,0.008,0.004c0,0,0.001,0,0.002,0c0.002,0.001,0.005,0.002,0.008,0.003c0,0,0.001,0.001,0.001,0.001
			c0.003,0.001,0.005,0.002,0.008,0.003c0.001,0,0.001,0,0.002,0c0.012,0.005,0.023,0.009,0.036,0.014c0,0,0,0,0,0
			c0.002,0.001,0.005,0.002,0.008,0.003c0,0,0.001,0,0.001,0c0.002,0.002,0.005,0.002,0.008,0.004c0.001,0,0.001,0,0.002,0
			c0.002,0.001,0.005,0.002,0.008,0.003c0,0,0,0,0,0.001c0.015,0.005,0.03,0.011,0.045,0.016c0,0,0.001,0,0.001,0.001
			c0.002,0.001,0.005,0.002,0.008,0.003c0,0,0.001,0,0.001,0c0.003,0.001,0.006,0.002,0.008,0.003c0,0,0.001,0.001,0.001,0.001
			c0.015,0.005,0.03,0.011,0.045,0.016c0,0,0.001,0,0.001,0c0.003,0.002,0.005,0.002,0.008,0.003c0,0.001,0.001,0.001,0.002,0.001
			c0.003,0.001,0.005,0.002,0.008,0.003c0,0,0,0,0.001,0c0.003,0.001,0.006,0.002,0.009,0.003l0,0
			c0.012,0.005,0.024,0.009,0.036,0.013c0,0.001,0.001,0.001,0.002,0.001c0.003,0.001,0.005,0.002,0.008,0.003c0,0,0.001,0,0.002,0
			c0.002,0.001,0.005,0.002,0.008,0.003c0,0,0.001,0.001,0.002,0.001c0.012,0.004,0.023,0.008,0.035,0.012
			c0,0,0.001,0.001,0.002,0.001c0.002,0,0.005,0.001,0.007,0.002c0.001,0,0.001,0.001,0.002,0.001
			c0.002,0.001,0.005,0.002,0.007,0.003c0.001,0,0.002,0,0.003,0c0.002,0.001,0.005,0.002,0.007,0.003
			c0.001,0,0.002,0.001,0.003,0.001c0.002,0.001,0.005,0.002,0.007,0.002c0.001,0.001,0.002,0.001,0.002,0.001
			c0.012,0.004,0.023,0.008,0.035,0.012c0,0,0.001,0.001,0.001,0.001c0.003,0.001,0.005,0.001,0.008,0.002
			c0,0.001,0.001,0.001,0.002,0.001c0.002,0.001,0.005,0.002,0.008,0.003c0,0,0.001,0,0.002,0c0.002,0.002,0.005,0.002,0.007,0.003
			c0.001,0,0.001,0.001,0.002,0.001c0.012,0.004,0.023,0.008,0.035,0.012c0.001,0,0.001,0,0.002,0
			c0.002,0.001,0.004,0.002,0.007,0.002c0.001,0.001,0.002,0.001,0.003,0.002c0.002,0,0.005,0.001,0.007,0.002
			c0.001,0,0.002,0,0.002,0.001c0.002,0.001,0.005,0.001,0.007,0.002c0.001,0.001,0.002,0.001,0.003,0.001
			c0.002,0.001,0.005,0.002,0.007,0.003c0,0,0,0,0.001,0c0.008,0.003,0.018,0.006,0.026,0.009c0,0,0.001,0,0.002,0
			c0.002,0.001,0.004,0.002,0.007,0.002c0.001,0.001,0.002,0.001,0.003,0.002c0.002,0,0.004,0.001,0.007,0.002
			c0.001,0,0.002,0.001,0.003,0.001c0.002,0.001,0.004,0.001,0.007,0.002c0.001,0,0.001,0.001,0.002,0.001
			c0.003,0.001,0.005,0.002,0.008,0.002c0,0.001,0,0,0,0.001c0.009,0.003,0.018,0.005,0.027,0.008c0,0.001,0.001,0.001,0.001,0.001
			c0.002,0.001,0.005,0.002,0.008,0.002c0.001,0,0.001,0.001,0.002,0.001c0.002,0.001,0.005,0.002,0.007,0.002
			c0.001,0.001,0.002,0.001,0.004,0.001c0.002,0.001,0.004,0.002,0.006,0.002c0.001,0.001,0.003,0.001,0.004,0.002
			c0.002,0,0.004,0.001,0.006,0.002c0.001,0,0.002,0,0.003,0.001c0.008,0.002,0.016,0.005,0.024,0.008c0.001,0,0.001,0,0.002,0
			c0.002,0.001,0.005,0.002,0.007,0.003c0.001,0,0.002,0,0.002,0c0.002,0.001,0.005,0.002,0.007,0.002
			c0.001,0.001,0.002,0.001,0.003,0.002c0.002,0,0.004,0.001,0.007,0.002c0.001,0,0.002,0,0.003,0.001
			c0.002,0,0.005,0.001,0.007,0.002c0.001,0,0.002,0,0.003,0.001c0.012,0.003,0.024,0.007,0.035,0.011c0,0,0.001,0,0.001,0
			c0.002,0.001,0.005,0.002,0.008,0.003c0,0,0.001,0,0.002,0c0.002,0.001,0.005,0.002,0.008,0.003c0.001,0,0.001,0,0.002,0
			c0.003,0.001,0.005,0.002,0.008,0.003c0,0,0.001,0,0.002,0c0.003,0.001,0.005,0.002,0.008,0.003c0,0,0.001,0,0.001,0
			c0.009,0.003,0.017,0.005,0.026,0.008c0,0,0.001,0.001,0.002,0.001c0.002,0,0.005,0.001,0.007,0.002
			c0.001,0,0.002,0.001,0.003,0.001c0.002,0.001,0.005,0.001,0.007,0.002c0.001,0,0.002,0.001,0.003,0.001
			c0.002,0,0.005,0.001,0.007,0.002c0.001,0,0.002,0.001,0.003,0.001c0.002,0.001,0.005,0.001,0.007,0.002
			c0,0,0.001,0.001,0.002,0.001c0.008,0.002,0.017,0.005,0.025,0.007c0,0.001,0.001,0.001,0.002,0.001
			c0.002,0.001,0.004,0.001,0.007,0.002c0.001,0,0.002,0.001,0.003,0.001c0.002,0.001,0.004,0.001,0.007,0.002
			c0.001,0,0.002,0.001,0.003,0.001c0.002,0.001,0.004,0.001,0.007,0.002c0.001,0,0.002,0,0.002,0.001
			c0.003,0.001,0.005,0.001,0.008,0.002c0,0,0,0,0.001,0c0.009,0.003,0.017,0.005,0.025,0.008c0.001,0,0.002,0.001,0.003,0.001
			c0.002,0,0.004,0.001,0.007,0.002c0.001,0,0.002,0,0.003,0.001c0.002,0,0.005,0.001,0.007,0.002c0.001,0,0.002,0,0.003,0.001
			c0.002,0,0.004,0.001,0.007,0.002c0.001,0,0.002,0,0.003,0.001c0.002,0,0.004,0.001,0.007,0.002c0.001,0,0.002,0,0.003,0
			c0.008,0.003,0.017,0.005,0.025,0.008c0,0,0.001,0,0.001,0c0.003,0.001,0.005,0.001,0.008,0.002c0,0.001,0.001,0.001,0.002,0.001
			c0.002,0.001,0.005,0.001,0.007,0.002c0.001,0,0.002,0.001,0.003,0.001c0.002,0.001,0.005,0.001,0.007,0.002
			c0.001,0,0.002,0.001,0.003,0.001c0.002,0,0.005,0.001,0.007,0.002c0,0,0.001,0,0.002,0c0.012,0.004,0.023,0.007,0.035,0.01
			c0.001,0,0.002,0.001,0.003,0.001c0.002,0.001,0.005,0.001,0.007,0.002c0.001,0,0.001,0.001,0.002,0.001
			c0.002,0,0.005,0.001,0.007,0.002c0.001,0,0.002,0,0.003,0.001c0.002,0.001,0.005,0.001,0.008,0.002c0,0,0.001,0,0.001,0
			c0.002,0.001,0.005,0.002,0.008,0.003l0,0c0.009,0.002,0.018,0.005,0.027,0.007c0.001,0,0.001,0.001,0.002,0.001
			c0.002,0,0.004,0.001,0.007,0.002c0.001,0,0.002,0,0.003,0.001c0.002,0,0.004,0.001,0.007,0.001
			c0.001,0.001,0.002,0.001,0.003,0.001c0.002,0.001,0.005,0.002,0.007,0.002c0.001,0,0.002,0.001,0.003,0.001
			c0.002,0.001,0.005,0.001,0.007,0.002c0,0,0,0,0,0c0.009,0.003,0.017,0.005,0.026,0.007c0.001,0.001,0.002,0.001,0.003,0.001
			c0.002,0.001,0.005,0.001,0.007,0.002c0.001,0,0.002,0,0.003,0.001c0.002,0,0.004,0.001,0.006,0.001
			c0.001,0.001,0.003,0.001,0.004,0.002c0.002,0,0.004,0.001,0.006,0.001c0.001,0.001,0.002,0.001,0.004,0.001
			c0.002,0.001,0.004,0.001,0.006,0.002c0.001,0,0.002,0.001,0.003,0.001c0.008,0.002,0.017,0.004,0.025,0.007c0,0,0.001,0,0.001,0
			c0.003,0,0.005,0.001,0.008,0.002c0.001,0,0.002,0,0.003,0.001c0.002,0,0.005,0.001,0.007,0.001
			c0.001,0.001,0.002,0.001,0.003,0.001c0.002,0.001,0.004,0.001,0.007,0.002c0.001,0,0.002,0.001,0.004,0.001
			c0.002,0.001,0.004,0.001,0.007,0.002c0.001,0,0.001,0,0.002,0c0.008,0.002,0.017,0.005,0.025,0.007c0.001,0,0.002,0,0.002,0.001
			c0.003,0,0.005,0.001,0.008,0.001c0.001,0.001,0.001,0.001,0.002,0.001c0.002,0.001,0.005,0.001,0.007,0.002
			c0.001,0,0.002,0,0.003,0.001c0.002,0,0.004,0.001,0.007,0.001c0.001,0.001,0.002,0.001,0.004,0.001
			c0.002,0.001,0.004,0.001,0.006,0.002c0.001,0,0.002,0.001,0.004,0.001c0.002,0.001,0.005,0.001,0.007,0.002l0,0
			c0.009,0.002,0.018,0.004,0.027,0.006c0.001,0.001,0.002,0.001,0.003,0.001c0.002,0.001,0.005,0.001,0.008,0.002
			c0.001,0,0.001,0.001,0.002,0.001c0.002,0,0.005,0.001,0.008,0.002c0,0,0.001,0,0.002,0c0.003,0.001,0.005,0.002,0.008,0.002
			c0,0,0.001,0,0.002,0.001c0.003,0,0.005,0.001,0.008,0.002c0.001,0,0.001,0,0.002,0c0.008,0.002,0.018,0.005,0.026,0.007
			c0,0,0.001,0,0.001,0c0.002,0,0.005,0.001,0.007,0.002c0.001,0,0.002,0,0.003,0c0.002,0.001,0.004,0.002,0.007,0.002
			c0.001,0,0.002,0.001,0.003,0.001c0.002,0.001,0.004,0.001,0.007,0.002c0.001,0,0.002,0,0.003,0.001
			c0.002,0,0.005,0.001,0.007,0.001c0,0,0.001,0.001,0.001,0.001c0.009,0.002,0.017,0.004,0.025,0.006c0.001,0,0.003,0,0.004,0
			c0.002,0.001,0.004,0.002,0.007,0.002c0.001,0,0.002,0.001,0.003,0.001c0.002,0,0.005,0.001,0.007,0.001
			c0.001,0.001,0.002,0.001,0.004,0.001c0.002,0.001,0.004,0.001,0.007,0.002c0.001,0,0.002,0.001,0.003,0.001
			c0.002,0,0.004,0.001,0.007,0.001c0.001,0.001,0.002,0.001,0.003,0.001c0.005,0.001,0.01,0.002,0.014,0.003
			c0.001,0.001,0.001,0.001,0.002,0.001c0.002,0,0.005,0.001,0.007,0.002c0.001,0,0.002,0,0.003,0
			c0.002,0.001,0.004,0.001,0.007,0.002c0.001,0,0.003,0.001,0.004,0.001c0.002,0,0.004,0.001,0.006,0.001
			c0.001,0.001,0.003,0.001,0.004,0.001c0.002,0.001,0.004,0.001,0.006,0.002c0.002,0,0.003,0,0.005,0.001
			c0.002,0,0.004,0.001,0.006,0.001c0.001,0.001,0.003,0.001,0.004,0.001c0.002,0,0.004,0.001,0.006,0.002c0,0,0,0,0.001,0
			c0.005,0.001,0.01,0.002,0.015,0.003c0.001,0,0.003,0.001,0.005,0.001c0.001,0,0.004,0.001,0.006,0.001
			c0.001,0.001,0.003,0.001,0.004,0.001c0.002,0.001,0.004,0.001,0.006,0.002c0.001,0,0.003,0,0.004,0.001
			c0.003,0,0.004,0.001,0.007,0.001c0.001,0,0.002,0.001,0.004,0.001c0.002,0.001,0.004,0.001,0.006,0.001
			c0.001,0.001,0.003,0.001,0.004,0.001c0.008,0.002,0.016,0.004,0.024,0.006c0.001,0,0.001,0,0.002,0
			c0.002,0.001,0.004,0.001,0.006,0.002c0.001,0,0.003,0,0.005,0.001c0.002,0,0.004,0,0.006,0.001c0.001,0,0.003,0.001,0.004,0.001
			c0.002,0,0.004,0.001,0.006,0.001c0.001,0.001,0.003,0.001,0.004,0.001c0.002,0.001,0.004,0.001,0.006,0.002
			c0.001,0,0.003,0,0.004,0c0.002,0.001,0.004,0.001,0.006,0.002c0.001,0,0.002,0,0.004,0.001c0.004,0.001,0.009,0.002,0.014,0.003
			c0.001,0,0.002,0,0.003,0c0.002,0.001,0.004,0.001,0.006,0.001c0.002,0.001,0.003,0.001,0.005,0.001
			c0.002,0.001,0.003,0.001,0.005,0.002c0.001,0,0.004,0,0.005,0.001c0.002,0,0.004,0.001,0.006,0.001
			c0.001,0,0.003,0.001,0.005,0.001s0.003,0.001,0.005,0.001s0.003,0.001,0.005,0.001c0.002,0.001,0.004,0.001,0.006,0.001
			c0.001,0.001,0.003,0.001,0.004,0.001c0.005,0.001,0.008,0.002,0.013,0.003c0.001,0,0.002,0,0.003,0.001
			c0.002,0,0.004,0.001,0.006,0.001c0.001,0,0.003,0.001,0.005,0.001s0.004,0.001,0.005,0.001c0.002,0,0.003,0.001,0.005,0.001
			c0.002,0.001,0.003,0.001,0.005,0.001c0.002,0.001,0.003,0.001,0.005,0.001c0.002,0.001,0.003,0.001,0.005,0.001
			c0.001,0.001,0.003,0.001,0.005,0.002c0.002,0,0.004,0,0.006,0.001c0.002,0,0.003,0,0.005,0.001c0.003,0,0.006,0.001,0.01,0.002
			c0.002,0,0.004,0,0.006,0.001c0.002,0,0.004,0.001,0.007,0.001c0.001,0,0.003,0.001,0.004,0.001c0.002,0,0.004,0.001,0.006,0.001
			c0.001,0,0.003,0.001,0.004,0.001c0.002,0.001,0.004,0.001,0.006,0.001c0.001,0.001,0.003,0.001,0.004,0.001
			c0.002,0.001,0.004,0.001,0.006,0.001c0.002,0.001,0.003,0.001,0.005,0.001c0.001,0.001,0.004,0.001,0.005,0.001
			c0.002,0.001,0.003,0.001,0.005,0.002c0.002,0,0.004,0,0.006,0.001c0.001,0,0.002,0,0.004,0c0.004,0.001,0.008,0.002,0.012,0.003
			c0.001,0,0.003,0,0.005,0.001c0.001,0,0.004,0.001,0.006,0.001c0.001,0,0.003,0,0.004,0.001c0.002,0,0.004,0.001,0.006,0.001
			c0.001,0,0.003,0,0.005,0.001c0.002,0,0.003,0.001,0.006,0.001c0.001,0,0.003,0,0.004,0.001c0.002,0,0.004,0.001,0.006,0.001
			c0.001,0,0.003,0.001,0.005,0.001c0.002,0,0.003,0.001,0.005,0.001s0.004,0.001,0.006,0.001c0.004,0.001,0.006,0.001,0.01,0.002
			c0.001,0,0.003,0.001,0.005,0.001s0.003,0.001,0.006,0.001c0.001,0,0.003,0.001,0.005,0.001c0.002,0,0.004,0.001,0.006,0.001
			c0.001,0,0.003,0.001,0.005,0.001c0.002,0,0.004,0.001,0.006,0.001c0.001,0,0.003,0.001,0.005,0.001
			c0.002,0,0.004,0.001,0.006,0.001s0.003,0.001,0.005,0.001s0.003,0.001,0.005,0.001c0.001,0,0.003,0.001,0.004,0.001
			c0.005,0.001,0.009,0.002,0.014,0.002c0.001,0.001,0.001,0.001,0.002,0.001c0.002,0,0.004,0.001,0.007,0.001
			c0.001,0,0.003,0,0.004,0.001c0.002,0,0.004,0.001,0.006,0.001c0.001,0,0.003,0,0.005,0.001c0.001,0,0.004,0.001,0.006,0.001
			c0.001,0,0.003,0,0.005,0.001c0.002,0,0.004,0,0.006,0.001c0.001,0,0.003,0,0.005,0.001c0.002,0,0.004,0,0.006,0.001
			c0.002,0,0.004,0,0.006,0.001c0.003,0,0.005,0.001,0.008,0.001c0.002,0.001,0.005,0.001,0.007,0.001
			c0.002,0.001,0.004,0.001,0.006,0.001c0.001,0.001,0.002,0.001,0.004,0.001c0.002,0.001,0.004,0.001,0.006,0.001
			c0.001,0.001,0.003,0.001,0.005,0.001c0.002,0.001,0.003,0.001,0.005,0.001s0.004,0.001,0.006,0.001
			c0.002,0.001,0.003,0.001,0.005,0.001c0.002,0,0.003,0.001,0.005,0.001s0.003,0.001,0.005,0.001s0.004,0.001,0.006,0.001
			c0.001,0,0.003,0.001,0.005,0.001c0.003,0,0.006,0.001,0.01,0.002c0.002,0,0.002,0,0.004,0c0.002,0.001,0.004,0.001,0.006,0.001
			c0.002,0.001,0.003,0.001,0.005,0.001c0.002,0.001,0.004,0.001,0.006,0.001c0.001,0.001,0.003,0.001,0.005,0.001
			c0.002,0,0.004,0.001,0.006,0.001s0.003,0.001,0.005,0.001s0.003,0.001,0.005,0.001s0.004,0.001,0.005,0.001
			c0.002,0,0.004,0,0.006,0.001c0.001,0,0.003,0,0.005,0.001c0.003,0,0.007,0.001,0.011,0.001c0.001,0.001,0.002,0.001,0.003,0.001
			c0.002,0,0.005,0.001,0.007,0.001c0.001,0,0.003,0.001,0.005,0.001c0.002,0,0.004,0.001,0.006,0.001s0.003,0,0.005,0.001
			c0.002,0,0.004,0,0.006,0.001c0.001,0,0.003,0,0.005,0.001c0.002,0,0.004,0,0.006,0c0.001,0.001,0.003,0.001,0.005,0.001
			c0.002,0.001,0.003,0.001,0.005,0.001s0.003,0.001,0.005,0.001c0.003,0.001,0.006,0.001,0.01,0.002c0.001,0,0.003,0,0.004,0
			c0.002,0.001,0.005,0.001,0.008,0.001c0.001,0.001,0.003,0.001,0.004,0.001c0.002,0.001,0.004,0.001,0.006,0.001
			s0.003,0.001,0.005,0.001c0.002,0,0.004,0.001,0.006,0.001c0.001,0,0.004,0,0.005,0.001c0.002,0,0.004,0,0.005,0.001
			c0.002,0,0.004,0,0.006,0c0.001,0.001,0.003,0.001,0.005,0.001c0.002,0.001,0.003,0.001,0.005,0.001
			c0.001,0,0.004,0.001,0.005,0.001c0.004,0.001,0.008,0.001,0.011,0.002c0.001,0,0.003,0,0.004,0
			c0.002,0.001,0.004,0.001,0.006,0.001c0.001,0,0.003,0.001,0.004,0.001c0.002,0,0.004,0.001,0.006,0.001s0.003,0,0.005,0.001
			c0.002,0,0.004,0,0.005,0.001c0.002,0,0.004,0,0.005,0c0.002,0.001,0.003,0.001,0.006,0.001c0.001,0,0.003,0.001,0.005,0.001
			s0.003,0,0.005,0.001c0.002,0,0.004,0,0.005,0.001c0.002,0,0.006,0,0.009,0.001c0.002,0,0.005,0.001,0.007,0.001
			s0.004,0,0.005,0.001c0.002,0,0.004,0,0.006,0.001c0.001,0,0.003,0,0.005,0s0.003,0.001,0.005,0.001s0.004,0.001,0.005,0.001
			c0.002,0,0.004,0,0.006,0.001c0.002,0,0.003,0,0.005,0.001c0.002,0,0.004,0,0.006,0c0.001,0,0.003,0.001,0.005,0.001
			c0.002,0,0.004,0.001,0.006,0.001s0.003,0,0.005,0.001c0.003,0,0.007,0.001,0.01,0.001c0.001,0,0.004,0.001,0.005,0.001
			c0.002,0,0.003,0,0.005,0.001c0.002,0,0.004,0,0.006,0c0.002,0.001,0.003,0.001,0.005,0.001s0.003,0.001,0.005,0.001
			s0.003,0,0.005,0.001c0.002,0,0.003,0,0.006,0c0.001,0.001,0.003,0.001,0.005,0.001c0.002,0,0.004,0.001,0.006,0.001
			c0.001,0,0.003,0,0.004,0.001c0.002,0,0.004,0,0.007,0c0.001,0,0.001,0.001,0.002,0.001c0.004,0,0.009,0.001,0.013,0.001
			c0.001,0.001,0.004,0.001,0.005,0.001c0.002,0.001,0.004,0.001,0.005,0.001c0.002,0,0.003,0,0.005,0.001
			c0.002,0,0.004,0,0.006,0.001c0.002,0,0.004,0,0.005,0c0.002,0,0.004,0.001,0.005,0.001c0.002,0,0.004,0,0.006,0.001
			c0.002,0,0.003,0,0.005,0c0.002,0.001,0.004,0.001,0.007,0.001c0.001,0.001,0.003,0.001,0.004,0.001c0.002,0,0.004,0,0.007,0.001
			c0.003,0,0.006,0.001,0.01,0.001c0.001,0,0.003,0,0.005,0.001c0.002,0,0.003,0,0.005,0c0.002,0.001,0.004,0.001,0.006,0.001
			c0.001,0,0.003,0,0.005,0.001c0.002,0,0.004,0,0.006,0c0.002,0.001,0.004,0.001,0.005,0.001c0.002,0,0.004,0,0.006,0.001
			c0.001,0,0.004,0,0.005,0.001c0.002,0,0.004,0,0.005,0c0.002,0,0.003,0.001,0.005,0.001s0.004,0,0.006,0.001
			c0.004,0,0.007,0,0.011,0.001c0.001,0,0.003,0,0.004,0.001c0.002,0,0.004,0,0.007,0c0.001,0,0.002,0.001,0.004,0.001
			c0.002,0,0.004,0,0.006,0.001c0.002,0,0.003,0,0.005,0c0.001,0,0.004,0.001,0.006,0.001c0.002,0,0.003,0,0.005,0.001
			c0.002,0,0.004,0,0.006,0c0.001,0,0.003,0.001,0.005,0.001c0.002,0,0.004,0,0.006,0.001c0.002,0,0.004,0,0.006,0
			s0.004,0.001,0.006,0.001c0.003,0,0.006,0.001,0.009,0.001c0.001,0,0.003,0,0.005,0.001c0.002,0,0.004,0,0.006,0
			c0.002,0.001,0.004,0.001,0.006,0.001c0.001,0,0.003,0,0.005,0.001c0.002,0,0.004,0,0.006,0c0.002,0,0.003,0.001,0.005,0.001
			s0.004,0,0.006,0c0.001,0.001,0.003,0.001,0.004,0.001c0.002,0,0.004,0.001,0.006,0.001c0.002,0,0.004,0,0.006,0
			c0.002,0.001,0.003,0.001,0.005,0.001c0.003,0,0.007,0.001,0.011,0.001c0.001,0,0.002,0,0.004,0.001c0.002,0,0.004,0,0.007,0
			c0.002,0.001,0.003,0.001,0.005,0.001c0.002,0,0.004,0,0.006,0.001c0.002,0,0.003,0,0.005,0c0.002,0,0.004,0.001,0.006,0.001
			c0.001,0,0.003,0,0.005,0c0.002,0.001,0.004,0.001,0.006,0.001s0.004,0,0.005,0.001c0.002,0,0.004,0,0.006,0
			c0.001,0,0.003,0.001,0.005,0.001c0.003,0,0.007,0.001,0.011,0.001c0.001,0,0.001,0,0.003,0c0.003,0,0.005,0.001,0.008,0.001
			c0.001,0,0.002,0,0.003,0.001c0.002,0,0.005,0,0.008,0c0.001,0,0.003,0,0.004,0.001c0.002,0,0.004,0,0.007,0
			c0.002,0.001,0.003,0.001,0.005,0.001s0.004,0,0.007,0.001c0.001,0,0.003,0,0.004,0c0.002,0,0.005,0.001,0.008,0.001
			c0.001,0,0.002,0,0.004,0c0.003,0,0.007,0.001,0.011,0.001c0.001,0,0.001,0,0.002,0.001c0.003,0,0.005,0,0.008,0
			c0.001,0,0.003,0.001,0.004,0.001c0.002,0,0.005,0,0.007,0.001c0.001,0,0.003,0,0.004,0c0.002,0,0.004,0,0.007,0
			c0.002,0.001,0.003,0.001,0.005,0.001c0.002,0,0.004,0,0.007,0.001c0.001,0,0.002,0,0.004,0c0.002,0,0.004,0,0.007,0.001
			c0.001,0,0.003,0,0.004,0c0.003,0.001,0.006,0.001,0.01,0.001c0.001,0,0.001,0,0.002,0c0.003,0.001,0.006,0.001,0.009,0.001
			c0.001,0,0.003,0.001,0.004,0.001c0.002,0,0.005,0,0.007,0c0.001,0,0.002,0,0.004,0.001c0.002,0,0.004,0,0.007,0
			c0.001,0,0.003,0.001,0.005,0.001s0.004,0,0.006,0c0.001,0,0.003,0,0.004,0.001c0.002,0,0.005,0,0.007,0
			c0.001,0.001,0.003,0.001,0.004,0.001c0.004,0,0.007,0,0.011,0.001h0c0.003,0,0.007,0,0.011,0.001c0.002,0,0.003,0,0.004,0
			c0.002,0,0.005,0,0.007,0.001c0.002,0,0.003,0,0.004,0c0.002,0,0.005,0,0.007,0.001c0.002,0,0.003,0,0.004,0
			c0.003,0,0.005,0,0.007,0.001c0.001,0,0.003,0,0.004,0c0.002,0,0.004,0,0.007,0.001c0.001,0,0.003,0,0.004,0
			c0.003,0,0.006,0,0.01,0.001c0,0,0,0,0.001,0c0.004,0,0.008,0.001,0.011,0.001c0.001,0,0.002,0,0.003,0
			c0.002,0,0.005,0,0.008,0.001c0.001,0,0.003,0,0.004,0c0.002,0,0.005,0,0.007,0.001c0.001,0,0.003,0,0.004,0
			c0.002,0,0.005,0,0.007,0c0.001,0.001,0.002,0.001,0.004,0.001c0.002,0,0.005,0,0.008,0c0.001,0.001,0.002,0.001,0.003,0.001
			c0.003,0,0.006,0,0.009,0c0.001,0,0.001,0,0.002,0c0.004,0.001,0.008,0.001,0.011,0.001c0.001,0.001,0.002,0.001,0.003,0.001
			c0.002,0,0.005,0,0.008,0c0.001,0,0.002,0,0.003,0c0.002,0.001,0.005,0.001,0.008,0.001c0.001,0,0.002,0,0.004,0
			c0.002,0.001,0.005,0.001,0.007,0.001c0.001,0,0.003,0,0.004,0c0.002,0,0.005,0.001,0.007,0.001c0.001,0,0.003,0,0.004,0
			c0.002,0,0.005,0.001,0.008,0.001c0.001,0,0.002,0,0.003,0c0.004,0,0.007,0,0.011,0.001c0,0,0.001,0,0.002,0
			c0.003,0,0.006,0,0.008,0.001c0.001,0,0.003,0,0.005,0c0.002,0,0.004,0,0.006,0s0.003,0,0.005,0.001c0.002,0,0.004,0,0.006,0
			s0.003,0,0.005,0c0.002,0.001,0.005,0.001,0.007,0.001s0.003,0,0.004,0c0.003,0,0.006,0,0.008,0.001c0.001,0,0.002,0,0.003,0
			c0.003,0,0.007,0,0.01,0.001c0.001,0,0.002,0,0.004,0c0.002,0,0.005,0,0.008,0c0.001,0,0.003,0,0.004,0
			c0.002,0.001,0.004,0.001,0.006,0.001s0.003,0,0.005,0c0.002,0,0.004,0.001,0.006,0.001c0.001,0,0.003,0,0.005,0
			c0.002,0,0.004,0,0.006,0s0.004,0.001,0.006,0.001s0.004,0,0.006,0c0.001,0,0.004,0,0.005,0c0.003,0.001,0.005,0.001,0.009,0.001
			c0.001,0,0.002,0,0.004,0c0.003,0,0.006,0,0.009,0.001c0.002,0,0.003,0,0.005,0s0.004,0,0.006,0s0.003,0.001,0.005,0.001
			s0.004,0,0.006,0s0.003,0,0.005,0s0.004,0,0.006,0c0.001,0.001,0.003,0.001,0.005,0.001c0.002,0,0.004,0,0.007,0
			c0.001,0,0.003,0,0.004,0c0.003,0.001,0.005,0.001,0.008,0.001c0.001,0,0.002,0,0.003,0c0.004,0,0.007,0,0.011,0.001
			c0,0,0.002,0,0.002,0c0.003,0,0.006,0,0.009,0c0.001,0,0.002,0,0.004,0c0.002,0.001,0.005,0.001,0.007,0.001
			c0.001,0,0.003,0,0.004,0c0.002,0,0.005,0,0.007,0c0.001,0,0.003,0,0.005,0.001c0.002,0,0.004,0,0.007,0c0.001,0,0.003,0,0.004,0
			c0.002,0,0.005,0,0.008,0.001c0.001,0,0.001,0,0.003,0c0.003,0,0.007,0,0.011,0c0.001,0,0.002,0,0.003,0
			c0.002,0,0.005,0.001,0.008,0.001c0.001,0,0.003,0,0.004,0c0.002,0,0.004,0,0.007,0c0.001,0,0.003,0,0.004,0
			c0.002,0.001,0.005,0.001,0.007,0.001c0.001,0,0.003,0,0.004,0c0.002,0,0.005,0,0.007,0c0.001,0,0.002,0,0.004,0
			c0.002,0,0.005,0.001,0.008,0.001c0.001,0,0.001,0,0.003,0c0.004,0,0.008,0,0.011,0c0,0,0.001,0,0.001,0
			c0.003,0.001,0.007,0.001,0.01,0.001c0.001,0,0.001,0,0.003,0c0.003,0,0.005,0,0.008,0c0.001,0,0.002,0,0.004,0
			c0.002,0,0.005,0.001,0.007,0.001c0.001,0,0.003,0,0.004,0c0.002,0,0.005,0,0.007,0c0.001,0,0.002,0,0.004,0
			c0.003,0,0.006,0.001,0.009,0.001c0,0,0.001,0,0.002,0c0.004,0,0.008,0,0.012,0c0,0,0,0,0,0c0.003,0,0.007,0,0.011,0
			c0.001,0.001,0.002,0.001,0.003,0.001c0.003,0,0.005,0,0.008,0c0.001,0,0.003,0,0.004,0c0.002,0,0.004,0,0.007,0
			c0.001,0,0.002,0,0.004,0c0.002,0.001,0.005,0.001,0.007,0.001c0.002,0,0.002,0,0.004,0c0.002,0,0.005,0,0.007,0
			c0.001,0,0.003,0,0.004,0c0.008,0,0.015,0.001,0.022,0.001c0.001,0,0.003,0,0.004,0c0.002,0,0.005,0,0.007,0s0.003,0,0.005,0
			s0.004,0,0.007,0c0.002,0.001,0.002,0.001,0.004,0.001c0.002,0,0.005,0,0.007,0c0.001,0,0.003,0,0.004,0c0.003,0,0.005,0,0.008,0
			c0.001,0,0.002,0,0.004,0c0.003,0,0.006,0,0.009,0c0.001,0,0.002,0,0.002,0c0.004,0,0.007,0.001,0.011,0.001
			c0.001,0,0.002,0,0.004,0c0.002,0,0.005,0,0.008,0c0.001,0,0.002,0,0.003,0c0.003,0,0.005,0,0.008,0c0.001,0,0.002,0,0.004,0
			c0.002,0,0.005,0,0.008,0c0.001,0.001,0.002,0.001,0.003,0.001c0.003,0,0.005,0,0.008,0c0.001,0,0.002,0,0.003,0
			c0.003,0,0.007,0,0.011,0h0c0.003,0,0.008,0,0.012,0c0,0,0.001,0,0.002,0c0.003,0,0.006,0,0.009,0c0.001,0,0.002,0,0.004,0
			c0.002,0,0.005,0,0.007,0c0.001,0,0.003,0,0.005,0.001c0.002,0,0.004,0,0.007,0c0.001,0,0.003,0,0.004,0c0.002,0,0.005,0,0.007,0
			c0.001,0,0.002,0,0.004,0c0.003,0,0.006,0,0.009,0c0,0,0.001,0,0.002,0c0.004,0,0.008,0,0.012,0c0,0,0.002,0,0.003,0
			c0.003,0,0.005,0,0.008,0c0.001,0,0.002,0,0.004,0c0.002,0,0.005,0,0.008,0c0.001,0,0.003,0,0.004,0.001c0.003,0,0.005,0,0.007,0
			c0.001,0,0.003,0,0.004,0c0.002,0,0.005,0,0.007,0s0.003,0,0.005,0c0.003,0,0.005,0,0.008,0c0,0,0.002,0,0.003,0
			c0.003,0,0.007,0,0.011,0c0.001,0,0.002,0,0.003,0c0.003,0,0.005,0,0.009,0c0.001,0,0.002,0,0.003,0c0.003,0,0.005,0,0.008,0
			c0.001,0,0.003,0,0.004,0c0.002,0,0.005,0,0.007,0c0.001,0,0.002,0,0.004,0c0.002,0,0.005,0,0.008,0c0.001,0,0.002,0,0.004,0
			c0.003,0,0.005,0,0.008,0c0.001,0,0.002,0,0.003,0c0.004,0,0.008,0,0.012,0h0.18v-1H13C9.29,122,5.841,120.308,3.538,117.357
			L3.538,117.357z M37.18,122h-12v1h12V122L37.18,122z M61.18,122h-12v1h12V122L61.18,122z M85.18,122h-12v1h12V122L85.18,122z
			 M109.181,122h-12v1h12V122L109.181,122z M133.181,122h-12v1h12V122L133.181,122z M157.181,122h-12v1h12V122L157.181,122z
			 M180.487,120.663C178.776,121.55,176.93,122,175,122h-5.819v1H175c0.004,0,0.008,0,0.012,0c0.001,0,0.002,0,0.004,0
			s0.005,0,0.008,0c0.001,0,0.003,0,0.004,0c0.003,0,0.005,0,0.008,0c0.001,0,0.003,0,0.004,0c0.003,0,0.006,0,0.008,0
			s0.003,0,0.004,0c0.004,0,0.008,0,0.012,0l0,0c0.004,0,0.008,0,0.012,0c0.001,0,0.003,0,0.004,0c0.003,0,0.005,0,0.008,0
			c0.001,0,0.003,0,0.004,0c0.003,0,0.005,0,0.008,0c0.002,0,0.003,0,0.005,0s0.005,0,0.007,0s0.003,0,0.004,0
			c0.004,0,0.008-0.001,0.011-0.001c0.001,0,0.001,0,0.001,0c0.004,0,0.008,0,0.012,0c0.001,0,0.002,0,0.003,0
			c0.003,0,0.006,0,0.009,0c0.001,0,0.003,0,0.005,0s0.005,0,0.007,0s0.003,0,0.004,0c0.003,0,0.006,0,0.009,0
			c0.001,0,0.002,0,0.003,0c0.004,0,0.008,0,0.012,0l0,0c0.004,0,0.008-0.001,0.012-0.001c0.001,0,0.003,0,0.004,0
			c0.003,0,0.006,0,0.008,0s0.003,0,0.004,0c0.003,0,0.006,0,0.008,0s0.003,0,0.004,0c0.003,0,0.006,0,0.009,0
			c0.002,0,0.002,0,0.003,0c0.004,0,0.007,0,0.011,0c0.001,0,0.001,0,0.001,0c0.004,0,0.008-0.001,0.012-0.001
			c0.001,0,0.002,0,0.003,0c0.003,0,0.006,0,0.009,0c0.002,0,0.003,0,0.004,0c0.003,0,0.006,0,0.008,0s0.003,0,0.005,0
			s0.005,0,0.007-0.001c0.002,0,0.003,0,0.005,0c0.003,0,0.006,0,0.008,0s0.002,0,0.003,0c0.004,0,0.008,0,0.012,0
			c0.002,0,0.002,0,0.003,0c0.003,0,0.006,0,0.009,0c0.001,0,0.003,0,0.004,0c0.003-0.001,0.005-0.001,0.008-0.001
			c0.002,0,0.003,0,0.005,0s0.005,0,0.007,0s0.003,0,0.004,0c0.004,0,0.006,0,0.01,0c0.001-0.001,0.001-0.001,0.002-0.001
			c0.004,0,0.008,0,0.012,0c0.002,0,0.002,0,0.003,0c0.003,0,0.006,0,0.009,0c0.002,0,0.003,0,0.004,0c0.003,0,0.006,0,0.008-0.001
			c0.001,0,0.003,0,0.004,0c0.003,0,0.005,0,0.008,0c0.001,0,0.003,0,0.004,0c0.003,0,0.006,0,0.01,0l0.002-0.001
			c0.004,0,0.008,0,0.012,0c0.001,0,0.001,0,0.002,0c0.003,0,0.007,0,0.01,0c0.001,0,0.002,0,0.003,0
			c0.003,0,0.006-0.001,0.009-0.001c0.001,0,0.002,0,0.004,0c0.003,0,0.006,0,0.008,0c0.001,0,0.003,0,0.004,0
			c0.003-0.001,0.006-0.001,0.009-0.001c0.001,0,0.002,0,0.003,0c0.004,0,0.008,0,0.012,0l0,0c0.004,0,0.008,0,0.012-0.001
			c0.001,0,0.002,0,0.003,0c0.003,0,0.006,0,0.009,0c0.001,0,0.002,0,0.004,0c0.002-0.001,0.005-0.001,0.008-0.001
			c0.001,0,0.002,0,0.004,0c0.003,0,0.006,0,0.009,0c0.001,0,0.001,0,0.002,0c0.004,0,0.008-0.001,0.012-0.001
			c0.001,0,0.001,0,0.002,0c0.003,0,0.007,0,0.01,0c0.002-0.001,0.002-0.001,0.003-0.001c0.003,0,0.006,0,0.009,0
			c0.001,0,0.003,0,0.004,0c0.003,0,0.005,0,0.008,0c0.001-0.001,0.003-0.001,0.004-0.001c0.003,0,0.006,0,0.009,0
			c0.001,0,0.002,0,0.003,0c0.008-0.001,0.016-0.001,0.023-0.001c0.001,0,0.002,0,0.003-0.001c0.003,0,0.006,0,0.009,0
			c0.001,0,0.002,0,0.003,0c0.003,0,0.006-0.001,0.009-0.001c0.001,0,0.002,0,0.004,0c0.003,0,0.005,0,0.008,0
			c0.001,0,0.002,0,0.004,0c0.003-0.001,0.007-0.001,0.011-0.001c0.001,0,0.002,0,0.003,0c0.003,0,0.006-0.001,0.009-0.001
			c0.001,0,0.003,0,0.005,0s0.004,0,0.007,0c0.001,0,0.003,0,0.005-0.001c0.002,0,0.004,0,0.006,0s0.004,0,0.006,0
			s0.004-0.001,0.007-0.001c0.001,0,0.003,0,0.004,0c0.004,0,0.008,0,0.012-0.001c0,0,0,0,0.001,0c0.003,0,0.007,0,0.01,0
			c0.002,0,0.004-0.001,0.005-0.001c0.002,0,0.005,0,0.007,0c0.001,0,0.004,0,0.005,0c0.002,0,0.004-0.001,0.007-0.001
			c0.002,0,0.003,0,0.005,0s0.005,0,0.007-0.001c0.001,0,0.003,0,0.004,0c0.004,0,0.008,0,0.011,0c0,0,0.001,0,0.002,0
			c0.003-0.001,0.007-0.001,0.011-0.001c0.001,0,0.002,0,0.003,0c0.003-0.001,0.006-0.001,0.009-0.001c0.001,0,0.003,0,0.004,0
			c0.002,0,0.005-0.001,0.007-0.001s0.004,0,0.005,0c0.002,0,0.005,0,0.008-0.001c0.001,0,0.002,0,0.004,0c0.003,0,0.006,0,0.01,0
			l0.001-0.001c0.004,0,0.008,0,0.012,0c0.001-0.001,0.003-0.001,0.004-0.001c0.002,0,0.005,0,0.008,0c0.001,0,0.002,0,0.004,0
			c0.002-0.001,0.005-0.001,0.008-0.001c0.001,0,0.002,0,0.004,0c0.003-0.001,0.006-0.001,0.008-0.001s0.002,0,0.004,0
			c0.003,0,0.007-0.001,0.01-0.001c0.001,0,0.001,0,0.001,0c0.005,0,0.008-0.001,0.013-0.001c0,0,0.001,0,0.002,0
			c0.003,0,0.006-0.001,0.009-0.001c0.001,0,0.003,0,0.004,0c0.003,0,0.005-0.001,0.008-0.001c0.001,0,0.003,0,0.004,0
			c0.003,0,0.006,0,0.008-0.001c0.001,0,0.002,0,0.004,0c0.003,0,0.007,0,0.011-0.001l0,0c0.005,0,0.008,0,0.012-0.001
			c0.001,0,0.002,0,0.003,0c0.003,0,0.006,0,0.009-0.001c0.001,0,0.003,0,0.004,0c0.002,0,0.005,0,0.008-0.001
			c0.002,0,0.003,0,0.004,0c0.003,0,0.006,0,0.009-0.001c0.001,0,0.001,0,0.003,0c0.003,0,0.007,0,0.01-0.001
			c0.001,0,0.001,0,0.002,0c0.004,0,0.008-0.001,0.012-0.001h0.001c0.003,0,0.007,0,0.01-0.001c0.002,0,0.002,0,0.004,0
			c0.003,0,0.005-0.001,0.008-0.001c0.001,0,0.003,0,0.004,0c0.003,0,0.006-0.001,0.008-0.001s0.002,0,0.004,0
			c0.003,0,0.007-0.001,0.01-0.001h0.001c0.004,0,0.008-0.001,0.012-0.001c0.001,0,0.002,0,0.002,0
			c0.004-0.001,0.007-0.001,0.01-0.001c0.001,0,0.002,0,0.003,0c0.003-0.001,0.006-0.001,0.009-0.001
			c0.001,0,0.002-0.001,0.004-0.001s0.005,0,0.008,0c0.001,0,0.002-0.001,0.004-0.001s0.005,0,0.008-0.001c0.001,0,0.002,0,0.004,0
			c0.003,0,0.007,0,0.011-0.001c0.001,0,0.002,0,0.003,0c0.003,0,0.006-0.001,0.009-0.001c0.001,0,0.002,0,0.004,0
			c0.002-0.001,0.005-0.001,0.008-0.001c0.001,0,0.002,0,0.004-0.001c0.002,0,0.005,0,0.008,0c0.001,0,0.003,0,0.003-0.001
			c0.004,0,0.007,0,0.01-0.001c0.001,0,0.002,0,0.002,0c0.004,0,0.008,0,0.012-0.001c0.001,0,0.001,0,0.002,0
			c0.003,0,0.006-0.001,0.01-0.001c0.001,0,0.002,0,0.003,0c0.003-0.001,0.006-0.001,0.008-0.001s0.003,0,0.004-0.001
			c0.003,0,0.006,0,0.008,0c0.001,0,0.003-0.001,0.004-0.001c0.003,0,0.006,0,0.009-0.001c0.001,0,0.002,0,0.003,0
			c0.008-0.001,0.015-0.002,0.022-0.002c0.002,0,0.003,0,0.004-0.001c0.003,0,0.005,0,0.008-0.001c0.001,0,0.003,0,0.004,0
			c0.003,0,0.005,0,0.008-0.001c0.001,0,0.002,0,0.004,0c0.003-0.001,0.006-0.001,0.009-0.001c0.001,0,0.002,0,0.002,0
			c0.004-0.001,0.008-0.001,0.012-0.002c0.001,0,0.001,0,0.002,0c0.003,0,0.007-0.001,0.01-0.001c0.001,0,0.002,0,0.003,0
			c0.003-0.001,0.006-0.001,0.008-0.001s0.003,0,0.005-0.001c0.002,0,0.005,0,0.007-0.001c0.002,0,0.003,0,0.004,0
			c0.003,0,0.005,0,0.008-0.001c0.002,0,0.003,0,0.004,0c0.004-0.001,0.008-0.001,0.012-0.001c0-0.001,0-0.001,0.001-0.001
			c0.003,0,0.007,0,0.01-0.001c0.001,0,0.003,0,0.004,0c0.003,0,0.005-0.001,0.008-0.001c0.001,0,0.003-0.001,0.004-0.001
			c0.003,0,0.005,0,0.008,0c0.001-0.001,0.003-0.001,0.004-0.001c0.003,0,0.005-0.001,0.008-0.001c0.001,0,0.003,0,0.003,0
			c0.008-0.001,0.016-0.002,0.023-0.003c0.001,0,0.002,0,0.003,0c0.003-0.001,0.005-0.001,0.008-0.001
			c0.002,0,0.003-0.001,0.005-0.001s0.005-0.001,0.007-0.001c0.001,0,0.003,0,0.004,0c0.003-0.001,0.005-0.001,0.008-0.001
			c0.001,0,0.003-0.001,0.004-0.001c0.008-0.001,0.015-0.002,0.022-0.002c0.001-0.001,0.003-0.001,0.004-0.001
			c0.003,0,0.005-0.001,0.008-0.001c0.001,0,0.003,0,0.004,0c0.002-0.001,0.005-0.001,0.007-0.001
			c0.002-0.001,0.003-0.001,0.004-0.001c0.003,0,0.006-0.001,0.009-0.001c0.001,0,0.002,0,0.003,0
			c0.008-0.001,0.016-0.002,0.022-0.003c0.001,0,0.002,0,0.003-0.001c0.003,0,0.006,0,0.009-0.001c0.002,0,0.002,0,0.004,0
			c0.002-0.001,0.005-0.001,0.008-0.001c0.001-0.001,0.002-0.001,0.004-0.001s0.005,0,0.008-0.001c0.001,0,0.002,0,0.003,0
			c0.008-0.001,0.016-0.002,0.022-0.003c0.001,0,0.003-0.001,0.004-0.001c0.002,0,0.005-0.001,0.008-0.001c0.001,0,0.003,0,0.004,0
			c0.002-0.001,0.005-0.001,0.008-0.001c0.001-0.001,0.002-0.001,0.004-0.001c0.003,0,0.005-0.001,0.008-0.001
			c0.001,0,0.002,0,0.003-0.001c0.004,0,0.008,0,0.011-0.001c0.001,0,0,0,0.001,0c0.004-0.001,0.007-0.001,0.011-0.002
			c0.001,0,0.002,0,0.003,0c0.003-0.001,0.006-0.001,0.009-0.001c0.001,0,0.003-0.001,0.004-0.001c0.003,0,0.005-0.001,0.008-0.001
			c0.001,0,0.002,0,0.003,0c0.003-0.001,0.006-0.001,0.009-0.002c0.002,0,0.002,0,0.003,0c0.008-0.001,0.016-0.002,0.023-0.003
			l0.001-0.001c0.004,0,0.007-0.001,0.01-0.001c0.001,0,0.002,0,0.003,0c0.003-0.001,0.006-0.001,0.009-0.002
			c0.001,0,0.002,0,0.003,0c0.003-0.001,0.006-0.001,0.01-0.001c0-0.001,0.001-0.001,0.002-0.001c0.004,0,0.007-0.001,0.011-0.001
			h0.001c0.004-0.001,0.008-0.002,0.011-0.002c0.001,0,0.002,0,0.002,0c0.003-0.001,0.007-0.002,0.01-0.002c0.001,0,0.002,0,0.003,0
			c0.003-0.001,0.006-0.001,0.009-0.002c0.001,0,0.002,0,0.003,0c0.003-0.001,0.006-0.001,0.009-0.002c0.001,0,0.002,0,0.003,0
			c0.008-0.001,0.015-0.002,0.022-0.004c0.001,0,0.001,0,0.001,0c0.004,0,0.007-0.001,0.011-0.001c0.001,0,0.002-0.001,0.003-0.001
			c0.003,0,0.006-0.001,0.009-0.001c0,0,0.002,0,0.003-0.001c0.003,0,0.006,0,0.009-0.001c0.001,0,0.002,0,0.002,0
			c0.004-0.001,0.008-0.001,0.011-0.002h0.001c0.004-0.001,0.008-0.001,0.012-0.002l0,0c0.004-0.001,0.008-0.001,0.012-0.002
			c0.001,0,0.001,0,0.002,0c0.003-0.001,0.006-0.001,0.01-0.002c0,0,0.001,0,0.002,0c0.003-0.001,0.006-0.001,0.01-0.002
			c0,0,0.001,0,0.002,0c0.008-0.001,0.016-0.003,0.023-0.004l0,0c0.004-0.001,0.008-0.001,0.011-0.002c0.001,0,0.002,0,0.003,0
			c0.003-0.001,0.006-0.001,0.009-0.002c0.001,0,0.002,0,0.003,0c0.003-0.001,0.006-0.001,0.009-0.002c0.001,0,0.001,0,0.002,0
			c0.004-0.001,0.008-0.001,0.012-0.002l0,0c0.008-0.001,0.016-0.003,0.023-0.004c0.001,0,0.001,0,0.001,0
			c0.004-0.001,0.007-0.001,0.011-0.002c0.001,0,0.001,0,0.002,0c0.003-0.001,0.006-0.001,0.009-0.002c0.001,0,0.002,0,0.003,0
			c0.012-0.002,0.023-0.004,0.034-0.006c0.001,0,0.002,0,0.002-0.001c0.003,0,0.007-0.001,0.01-0.001l0.002-0.001
			c0.004,0,0.007-0.001,0.01-0.001c0.001-0.001,0.001-0.001,0.002-0.001c0.004,0,0.008-0.001,0.011-0.002h0.001
			c0.008-0.001,0.016-0.002,0.023-0.004c0,0,0,0,0.001,0c0.004-0.001,0.007-0.001,0.01-0.002c0.001,0,0.002,0,0.003,0
			c0.003-0.001,0.006-0.002,0.009-0.002c0.001,0,0.002,0,0.002,0c0.012-0.003,0.023-0.005,0.035-0.007h0.001
			c0.004-0.001,0.007-0.001,0.01-0.002c0.001,0,0.002,0,0.003-0.001c0.003,0,0.006-0.001,0.009-0.001
			c0.001,0,0.002-0.001,0.003-0.001c0.003,0,0.006-0.001,0.009-0.001c0.001-0.001,0.002-0.001,0.002-0.001
			c0.008-0.001,0.016-0.003,0.023-0.004c0.001,0,0,0,0.001,0c0.003-0.001,0.007-0.002,0.011-0.002c0,0,0.001-0.001,0.002-0.001
			c0.003,0,0.006-0.001,0.009-0.001c0.001-0.001,0.002-0.001,0.003-0.001c0.003-0.001,0.007-0.001,0.01-0.002h0.001
			c0.008-0.002,0.016-0.003,0.023-0.005c0.001,0,0,0,0,0c0.004,0,0.008-0.001,0.012-0.002c0.001,0,0.001,0,0.001,0
			c0.004-0.001,0.008-0.002,0.011-0.002c0.001,0,0.001,0,0.001,0c0.016-0.004,0.031-0.007,0.047-0.01h0.001
			c0.003-0.001,0.007-0.002,0.011-0.002c0,0,0,0,0.001,0c0.016-0.004,0.031-0.007,0.047-0.01l0,0
			c0.004-0.001,0.008-0.002,0.012-0.002c0,0,0,0,0.001-0.001c0.003,0,0.007-0.001,0.011-0.002l0,0
			c0.016-0.003,0.031-0.007,0.047-0.01c0.001,0,0.001,0,0.001,0c0.016-0.003,0.031-0.007,0.047-0.01c0,0,0,0,0.001,0
			c0.003-0.001,0.007-0.002,0.011-0.003h0.001c0.003-0.001,0.007-0.002,0.011-0.002l0,0c0.013-0.003,0.024-0.006,0.036-0.008l0,0
			c0.004-0.001,0.008-0.002,0.011-0.003h0.001c0.02-0.004,0.039-0.009,0.059-0.013l0,0c0.004-0.001,0.008-0.002,0.012-0.003l0,0
			c0.016-0.003,0.031-0.007,0.047-0.011h0.001c1.081-0.246,2.112-0.628,3.074-1.127L180.487,120.663L180.487,120.663z M188,100.229
			h-1V110c0,0.687-0.06,1.376-0.176,2.048l0.985,0.171c0.079-0.455,0.134-0.917,0.164-1.387c0,0,0,0,0-0.001
			c0-0.003,0-0.006,0.001-0.01l0,0c0-0.014,0.001-0.027,0.002-0.041l0,0c0-0.004,0.001-0.007,0.001-0.011l0,0
			c0-0.004,0-0.007,0-0.01l0,0c0.001-0.014,0.002-0.027,0.003-0.041c0-0.001,0-0.001,0-0.001c0-0.003,0-0.006,0-0.01
			c0,0,0,0,0-0.001c0.001-0.01,0.002-0.02,0.002-0.03l0,0c0-0.003,0-0.007,0.001-0.01c0-0.001,0-0.001,0-0.002
			c0-0.003,0-0.005,0-0.008c0-0.001,0-0.001,0-0.002c0-0.003,0-0.006,0.001-0.009c0,0,0-0.001,0-0.002
			c0-0.01,0.001-0.02,0.001-0.029c0-0.001,0-0.001,0-0.002c0-0.002,0.001-0.006,0.001-0.008c0-0.001,0-0.002,0-0.002
			c0-0.003,0-0.006,0-0.009c0,0,0-0.001,0-0.002c0-0.002,0-0.006,0.001-0.009c0,0,0,0,0-0.001c0-0.01,0.001-0.02,0.001-0.03
			c0,0,0-0.001,0-0.002c0-0.002,0-0.005,0-0.008c0,0,0-0.001,0.001-0.002c0-0.003,0-0.006,0-0.008c0-0.001,0-0.002,0-0.002
			c0-0.003,0-0.006,0-0.009c0-0.001,0-0.001,0-0.001c0.001-0.004,0.001-0.007,0.001-0.011c0,0,0,0,0-0.001c0-0.002,0-0.006,0-0.009
			c0-0.001,0-0.001,0-0.002c0-0.003,0-0.005,0.001-0.008c0-0.001,0-0.002,0-0.003c0-0.002,0-0.004,0-0.007c0-0.001,0-0.002,0-0.003
			c0-0.003,0-0.005,0-0.008c0,0,0-0.001,0-0.002c0.001-0.007,0.001-0.013,0.001-0.02c0-0.001,0-0.001,0-0.002
			c0-0.002,0-0.006,0-0.008c0-0.001,0-0.002,0.001-0.003c0-0.003,0-0.005,0-0.008c0-0.001,0-0.001,0-0.002c0-0.003,0-0.005,0-0.008
			c0-0.001,0-0.002,0-0.003c0-0.002,0-0.005,0.001-0.008v-0.001c0-0.004,0-0.007,0-0.011l0,0c0-0.004,0-0.007,0-0.01
			c0-0.001,0-0.002,0-0.002c0-0.003,0-0.005,0-0.008c0-0.001,0-0.002,0-0.003c0.001-0.002,0.001-0.005,0.001-0.007
			c0-0.001,0-0.002,0-0.003c0-0.003,0-0.005,0-0.008c0-0.001,0-0.001,0-0.002c0-0.003,0-0.006,0-0.01l0,0
			c0-0.003,0.001-0.007,0.001-0.01c0-0.001,0-0.002,0-0.004s0-0.004,0-0.006c0-0.001,0-0.002,0-0.003c0-0.003,0-0.005,0-0.008
			c0,0,0-0.002,0-0.003c0-0.002,0-0.004,0-0.007c0-0.001,0-0.002,0-0.002c0-0.003,0.001-0.007,0.001-0.009c0-0.001,0-0.001,0-0.002
			c0-0.006,0-0.013,0-0.02c0-0.001,0-0.002,0-0.003c0-0.002,0-0.005,0-0.007c0-0.001,0-0.002,0-0.003c0-0.002,0-0.005,0.001-0.007
			c0-0.001,0-0.002,0-0.004s0-0.004,0-0.006c0-0.001,0-0.003,0-0.004c0-0.002,0-0.006,0-0.008c0-0.001,0-0.001,0-0.002
			c0-0.003,0-0.006,0-0.009c0-0.002,0-0.002,0-0.004s0-0.004,0-0.006s0-0.003,0-0.004c0-0.002,0-0.004,0-0.007
			c0-0.001,0-0.002,0-0.003c0-0.002,0.001-0.005,0.001-0.007c0-0.001,0-0.002,0-0.003c0-0.003,0-0.006,0-0.009v-0.001
			c0-0.004,0-0.007,0-0.01c0-0.001,0-0.002,0-0.003c0-0.002,0-0.005,0-0.007c0-0.001,0-0.002,0-0.003c0-0.003,0-0.005,0-0.008
			c0-0.001,0-0.002,0-0.003c0-0.002,0-0.004,0-0.007c0-0.001,0-0.002,0-0.003c0-0.002,0-0.005,0-0.007c0-0.001,0-0.002,0-0.003
			c0-0.004,0-0.006,0.001-0.01l0,0c0-0.004,0-0.007,0-0.01c0-0.001,0-0.002,0-0.003c0-0.002,0-0.005,0-0.007
			c0-0.001,0-0.003,0-0.004c0-0.002,0-0.004,0-0.006s0-0.003,0-0.004c0-0.003,0-0.004,0-0.007c0-0.001,0-0.002,0-0.003
			c0-0.002,0-0.006,0-0.008c0-0.001,0-0.002,0-0.002c0-0.004,0-0.006,0-0.01c0-0.001,0-0.002,0-0.003c0-0.002,0-0.005,0-0.007
			c0-0.001,0-0.003,0-0.004c0-0.002,0-0.004,0-0.006c0-0.001,0-0.003,0-0.004c0-0.002,0-0.004,0-0.006c0-0.001,0-0.003,0-0.004
			c0-0.002,0-0.004,0-0.006s0-0.003,0-0.004c0-0.003,0-0.007,0-0.01l0,0V100.229L188,100.229z M188,76.229h-1v12h1V76.229
			L188,76.229z M188,52.229h-1v12h1V52.229L188,52.229z M188,28.229h-1v12h1V28.229L188,28.229z M185.139,4.887l-0.78,0.626
			C186.062,7.634,187,10.293,187,13v3.229h1V13c0-0.003,0-0.007,0-0.01c0-0.001,0-0.002,0-0.004c0-0.002,0-0.004,0-0.006
			c0-0.001,0-0.003,0-0.004c0-0.002,0-0.004,0-0.006c0-0.001,0-0.003,0-0.004c0-0.002,0-0.004,0-0.006s0-0.003,0-0.004
			c0-0.002,0-0.004,0-0.007c0-0.001,0-0.002,0-0.003c0-0.003,0-0.007,0-0.01v-0.001c0-0.003,0-0.006,0-0.009
			c0-0.001,0-0.002,0-0.002c0-0.002,0-0.005,0-0.007c0-0.001,0-0.003,0-0.004s0-0.004,0-0.005c0-0.002,0-0.003,0-0.004
			s0-0.004,0-0.006s0-0.002,0-0.004c0-0.002,0-0.004,0-0.006c0-0.001,0-0.002,0-0.003c-0.001-0.003-0.001-0.007-0.001-0.01
			c0,0,0,0,0,0c0-0.003,0-0.006,0-0.01c0,0,0-0.001,0-0.002c0-0.003,0-0.005,0-0.008c0-0.001,0-0.002,0-0.003
			c0-0.002,0-0.004,0-0.007c0-0.001,0-0.002,0-0.003c0-0.002,0-0.004,0-0.006c0-0.001,0-0.002,0-0.004c0-0.002,0-0.004,0-0.006
			c0-0.001,0-0.002,0-0.003c0-0.003,0-0.005,0-0.008c0-0.001,0-0.003,0-0.004c0-0.002-0.001-0.005-0.001-0.008
			c0-0.001,0-0.002,0-0.003c0-0.002,0-0.004,0-0.007c0-0.001,0-0.002,0-0.003c0-0.002,0-0.004,0-0.006c0-0.001,0-0.002,0-0.003
			c0-0.002,0-0.004,0-0.006c0-0.001,0-0.003,0-0.004c0-0.002,0-0.004,0-0.006c0-0.001,0-0.003,0-0.004c0-0.003,0-0.006,0-0.008
			c0-0.001,0-0.002,0-0.003c-0.001-0.002-0.001-0.005-0.001-0.007c0-0.001,0-0.002,0-0.004c0-0.002,0-0.003,0-0.006
			c0-0.001,0-0.003,0-0.004c0-0.002,0-0.004,0-0.006c0-0.001,0-0.002,0-0.003c0-0.002,0-0.004,0-0.007c0-0.001,0-0.002,0-0.003
			c0-0.002-0.001-0.005-0.001-0.007c0,0,0-0.001,0-0.002c0-0.003,0-0.006,0-0.01l0,0c0-0.004,0-0.006,0-0.01
			c0-0.001,0-0.002,0-0.003c0-0.002,0-0.004,0-0.006c0-0.001,0-0.003,0-0.004s-0.001-0.004-0.001-0.006c0-0.001,0-0.002,0-0.004
			c0-0.002,0-0.004,0-0.006c0-0.001,0-0.002,0-0.003c0-0.002,0-0.005,0-0.007c0-0.001,0-0.002,0-0.003c0-0.003,0-0.006-0.001-0.009
			c0-0.001,0-0.002,0-0.003c0-0.002,0-0.005,0-0.007c0-0.001,0-0.002,0-0.003c0-0.002,0-0.004,0-0.007c0-0.001,0-0.002,0-0.003
			s0-0.004,0-0.006s0-0.003-0.001-0.004c0-0.001,0-0.004,0-0.006c0-0.001,0-0.002,0-0.004c0-0.002,0-0.005,0-0.007
			c0,0,0-0.001,0-0.002c0-0.003,0-0.006-0.001-0.01c0,0,0,0,0,0c0-0.002,0-0.006,0-0.009c0-0.001,0-0.002,0-0.003
			c0-0.002,0-0.004,0-0.006c0-0.001,0-0.002,0-0.003c0-0.002,0-0.005-0.001-0.006c0-0.001,0-0.002,0-0.004c0-0.002,0-0.003,0-0.006
			c0-0.001,0-0.002,0-0.004s0-0.004,0-0.006c0-0.001,0-0.002,0-0.003c-0.001-0.003-0.001-0.006-0.001-0.009c0-0.001,0-0.002,0-0.003
			c0-0.002,0-0.004,0-0.006c0-0.001,0-0.003,0-0.004c0-0.002,0-0.004-0.001-0.006c0-0.001,0-0.003,0-0.004s0-0.004,0-0.005
			c0-0.002,0-0.003,0-0.004c0-0.002,0-0.004,0-0.007c0-0.001-0.001-0.002-0.001-0.003c0-0.003,0-0.005,0-0.008c0,0,0-0.001,0-0.002
			c0-0.003,0-0.007,0-0.01c0,0,0,0,0-0.001c-0.001-0.003-0.001-0.006-0.001-0.009c0-0.001,0-0.002,0-0.003c0-0.002,0-0.004,0-0.007
			c0-0.001,0-0.003,0-0.004c-0.001-0.002-0.001-0.004-0.001-0.006c0-0.001,0-0.002,0-0.004c0-0.002,0-0.004,0-0.006
			c0-0.001,0-0.002,0-0.003c0-0.002-0.001-0.005-0.001-0.007c0,0,0-0.001,0-0.002c0-0.003,0-0.006,0-0.01v-0.001
			c-0.001-0.003-0.001-0.006-0.001-0.009c0-0.001,0-0.002,0-0.003c0-0.002,0-0.004,0-0.007c0-0.001,0-0.002,0-0.003
			c-0.001-0.001-0.001-0.004-0.001-0.006s0-0.002,0-0.004c0-0.002,0-0.003,0-0.006c0-0.001,0-0.002-0.001-0.004
			c0-0.002,0-0.005,0-0.007c0-0.001,0-0.001,0-0.002c0-0.004,0-0.007,0-0.01v0c-0.001-0.003-0.001-0.006-0.001-0.009
			c0-0.001,0-0.001,0-0.002c0-0.002,0-0.005-0.001-0.007c0-0.001,0-0.002,0-0.003c0-0.002,0-0.004,0-0.007c0-0.001,0-0.001,0-0.002
			c0-0.002-0.001-0.004-0.001-0.007c0-0.001,0-0.002,0-0.003c0-0.002,0-0.006,0-0.008c0,0,0,0,0-0.001
			c-0.001-0.003-0.001-0.006-0.001-0.01V12.25c0-0.002,0-0.006-0.001-0.009c0-0.001,0-0.002,0-0.003c0-0.002,0-0.005,0-0.007
			c0-0.001,0-0.002,0-0.003c-0.001-0.002-0.001-0.005-0.001-0.007c0-0.001,0-0.002,0-0.003c0-0.002,0-0.005,0-0.008
			c0,0,0-0.001-0.001-0.002c0-0.003,0-0.007,0-0.01l0,0c0-0.003-0.001-0.007-0.001-0.01c0,0,0,0,0,0c0-0.003,0-0.006,0-0.009
			c0,0-0.001-0.001-0.001-0.002c0-0.002,0-0.005,0-0.007c0-0.001,0-0.002,0-0.004c0-0.002-0.001-0.004-0.001-0.006
			c0-0.001,0-0.002,0-0.003c0-0.002,0-0.005,0-0.008c0,0,0-0.001-0.001-0.001c0-0.01-0.001-0.02-0.002-0.03c0,0,0-0.001,0-0.002
			c0-0.003,0-0.005,0-0.008c0-0.001,0-0.002-0.001-0.003c0-0.002,0-0.004,0-0.007c0-0.001,0-0.002,0-0.003
			c0-0.002,0-0.005-0.001-0.007c0-0.001,0-0.002,0-0.003c0-0.003,0-0.006-0.001-0.009c0,0,0,0,0-0.001c0-0.003,0-0.006,0-0.01
			c0,0,0-0.001,0-0.002c-0.001-0.002-0.001-0.005-0.001-0.008c0-0.001,0-0.002,0-0.003c0-0.002-0.001-0.004-0.001-0.006
			c0-0.001,0-0.002,0-0.003c0-0.002,0-0.005,0-0.007c-0.001-0.001-0.001-0.002-0.001-0.003c0-0.002,0-0.005,0-0.007
			c0-0.001,0-0.002,0-0.003c-0.001-0.003-0.001-0.006-0.001-0.009c0,0,0,0,0-0.001c0-0.003-0.001-0.007-0.001-0.01
			c0,0,0-0.001,0-0.001c0-0.003-0.001-0.006-0.001-0.009c0-0.001,0-0.002,0-0.002c0-0.002,0-0.005,0-0.007
			c-0.001-0.001-0.001-0.002-0.001-0.003c0-0.003,0-0.005,0-0.007c0-0.001-0.001-0.002-0.001-0.003c0-0.002,0-0.005,0-0.008
			c0,0,0-0.001,0-0.002c-0.001-0.003-0.001-0.007-0.001-0.01l0,0c0-0.003-0.001-0.007-0.001-0.01c0,0,0-0.001,0-0.001
			c0-0.003-0.001-0.006-0.001-0.009c0,0,0-0.001,0-0.001c0-0.003,0-0.005-0.001-0.008c0-0.001,0-0.002,0-0.003
			c0-0.003,0-0.005,0-0.007c-0.001,0-0.001-0.001-0.001-0.002c0-0.002,0-0.006,0-0.009c0,0-0.001,0-0.001-0.001
			c0-0.01-0.001-0.02-0.002-0.03c0,0,0,0,0-0.001c0-0.002-0.001-0.006-0.001-0.009c0,0,0-0.001,0-0.001
			c0-0.002-0.001-0.005-0.001-0.008c0,0,0-0.001,0-0.002c0-0.002-0.001-0.005-0.001-0.008c0-0.001,0-0.001,0-0.002
			c-0.001-0.01-0.002-0.02-0.003-0.03c0,0,0,0,0,0c0-0.003,0-0.006-0.001-0.009v-0.001c0-0.003-0.001-0.006-0.001-0.009
			c0-0.001,0-0.001,0-0.001c0-0.003,0-0.006-0.001-0.009c0,0,0,0,0-0.001c0-0.007-0.001-0.013-0.002-0.02v0
			c0-0.003,0-0.006-0.001-0.009c0-0.001,0-0.001,0-0.002c0-0.003,0-0.006-0.001-0.008c0,0,0-0.001,0-0.001
			c0-0.003,0-0.006-0.001-0.009c0,0,0-0.001,0-0.001c0-0.003,0-0.006-0.001-0.009c0,0,0-0.001,0-0.002
			c-0.001-0.007-0.001-0.013-0.002-0.02l0,0c0-0.004-0.001-0.006-0.001-0.01c0-0.001,0-0.001,0-0.002
			c0-0.002-0.001-0.005-0.001-0.008c0,0,0-0.002,0-0.003c-0.001-0.002-0.001-0.005-0.001-0.007c0-0.001,0-0.002,0-0.002
			c0-0.003-0.001-0.006-0.001-0.009c0,0,0,0,0,0c-0.001-0.01-0.002-0.02-0.003-0.03c0,0-0.001-0.001-0.001-0.001
			c0-0.002,0-0.005-0.001-0.008c0,0,0-0.001,0-0.002c0-0.002,0-0.005-0.001-0.008c0-0.001,0-0.001,0-0.002
			c0-0.002-0.001-0.006-0.001-0.009c0,0,0,0,0-0.001c-0.001-0.01-0.002-0.02-0.003-0.03l0,0c-0.001-0.003-0.001-0.006-0.001-0.009
			c0,0-0.001-0.001-0.001-0.001c0-0.003,0-0.006-0.001-0.009c0,0,0-0.001,0-0.001c0-0.004,0-0.006-0.001-0.009c0,0,0,0,0-0.001
			c-0.001-0.01-0.002-0.02-0.003-0.03c0,0,0-0.001,0-0.001c-0.001-0.003-0.001-0.006-0.002-0.009c0,0,0-0.001,0-0.002
			c0-0.002,0-0.006-0.001-0.008c0,0,0,0,0-0.001c0-0.003-0.001-0.006-0.001-0.009c0,0,0,0,0-0.001
			c-0.002-0.013-0.003-0.026-0.005-0.04c0,0,0-0.001,0-0.001c-0.001-0.003-0.001-0.006-0.001-0.009c0,0,0-0.001,0-0.001
			c-0.001-0.003-0.001-0.006-0.002-0.01l0,0c-0.001-0.01-0.002-0.021-0.004-0.03c0,0,0,0,0,0c0-0.003,0-0.006-0.001-0.009
			c0,0,0-0.001,0-0.001c0-0.004-0.001-0.006-0.001-0.009c0-0.001,0-0.001,0-0.001c-0.001-0.003-0.001-0.005-0.001-0.009
			c0,0,0-0.001-0.001-0.001c-0.001-0.01-0.002-0.02-0.004-0.03v0c0-0.003,0-0.006-0.001-0.009c0,0,0,0,0,0
			c-0.002-0.017-0.004-0.033-0.007-0.05c0-0.001,0-0.001,0-0.001c0-0.003-0.001-0.006-0.001-0.009c0,0,0,0,0-0.001
			c-0.001-0.003-0.001-0.006-0.002-0.009v0c-0.001-0.013-0.003-0.027-0.005-0.041l0,0c-0.001-0.003-0.001-0.006-0.002-0.009
			c0-0.001,0-0.001,0-0.002c0-0.002-0.001-0.006-0.001-0.009c0,0,0,0,0-0.001c-0.002-0.014-0.004-0.026-0.006-0.04l0,0
			c-0.001-0.003-0.001-0.006-0.002-0.009c0,0,0-0.001,0-0.001c0-0.003-0.001-0.006-0.001-0.009c0,0,0,0,0-0.001
			c-0.003-0.017-0.005-0.033-0.008-0.05l0,0c0-0.004-0.001-0.007-0.001-0.01c0,0,0,0,0,0c-0.003-0.014-0.005-0.027-0.007-0.041l0,0
			c0-0.003-0.001-0.006-0.001-0.01c0,0,0,0,0,0c-0.004-0.021-0.007-0.04-0.01-0.06v-0.001c-0.001-0.003-0.001-0.006-0.002-0.01l0,0
			c-0.002-0.013-0.004-0.026-0.006-0.04l0,0c-0.001-0.003-0.001-0.006-0.002-0.01c0,0,0,0,0,0c-0.001-0.003-0.001-0.006-0.002-0.009
			v0c0-0.003-0.001-0.006-0.001-0.01l0,0c-0.003-0.013-0.005-0.026-0.007-0.04v0c-0.007-0.04-0.014-0.079-0.021-0.119v-0.001
			c-0.01-0.057-0.021-0.112-0.031-0.169l0,0c-0.001-0.003-0.002-0.006-0.002-0.01l0,0c-0.035-0.179-0.073-0.356-0.115-0.532l0,0
			c-0.094-0.392-0.205-0.776-0.333-1.153l0,0c-0.037-0.106-0.074-0.213-0.113-0.318l0,0c-0.034-0.093-0.07-0.186-0.106-0.278v0
			c-0.003-0.006-0.005-0.012-0.008-0.018l0,0c-0.005-0.012-0.01-0.024-0.015-0.037v0c-0.001-0.003-0.002-0.005-0.003-0.008
			c0,0-0.001-0.001-0.001-0.001c-0.001-0.003-0.002-0.005-0.003-0.008c0,0,0,0,0,0c-0.005-0.013-0.01-0.024-0.015-0.037l-0.001,0
			c-0.007-0.018-0.015-0.036-0.021-0.054c-0.001,0-0.001,0-0.001,0c-0.001-0.003-0.002-0.006-0.003-0.009c0,0,0,0-0.001,0
			c-0.001-0.003-0.002-0.005-0.003-0.009c0,0,0,0,0,0c-0.005-0.012-0.011-0.023-0.016-0.036c0,0,0,0,0-0.001
			c-0.001-0.002-0.003-0.005-0.003-0.008c-0.001,0-0.001,0-0.001-0.001c-0.001-0.003-0.002-0.005-0.003-0.008
			c-0.001,0-0.001-0.001-0.001-0.001c-0.004-0.009-0.007-0.018-0.011-0.027c0,0-0.001,0-0.001,0
			c-0.001-0.003-0.002-0.006-0.003-0.008c0-0.001-0.001-0.001-0.001-0.002c-0.001-0.002-0.002-0.005-0.003-0.007
			c0,0,0-0.001-0.001-0.001c-0.001-0.002-0.002-0.005-0.003-0.007c0-0.001,0-0.002-0.001-0.002
			c-0.003-0.008-0.007-0.018-0.011-0.026c0,0,0,0-0.001,0c-0.001-0.003-0.002-0.006-0.003-0.008c0-0.001,0-0.001-0.001-0.002
			c-0.001-0.003-0.002-0.005-0.003-0.008c0,0,0,0,0,0c-0.002-0.003-0.003-0.005-0.004-0.009v0c-0.006-0.012-0.011-0.023-0.016-0.035
			c0-0.001,0-0.001-0.001-0.001c-0.001-0.002-0.002-0.005-0.003-0.008c0,0,0,0,0-0.001c-0.002-0.002-0.003-0.005-0.004-0.008
			c0,0,0,0,0-0.001c-0.005-0.009-0.008-0.018-0.012-0.026c-0.001,0-0.001,0-0.001,0c-0.001-0.002-0.002-0.005-0.003-0.008
			c0,0-0.001-0.001-0.001-0.002c-0.001-0.002-0.002-0.004-0.003-0.006c0,0-0.001-0.001-0.001-0.002
			c-0.001-0.002-0.002-0.005-0.003-0.007c-0.001,0-0.001-0.001-0.001-0.001c-0.004-0.009-0.008-0.018-0.012-0.027l0,0
			c-0.001-0.003-0.003-0.006-0.004-0.008c0,0,0,0,0-0.001c-0.001-0.002-0.003-0.005-0.004-0.007c0,0,0,0-0.001-0.001
			c-0.001-0.002-0.002-0.005-0.003-0.007c0-0.001,0-0.001-0.001-0.002c-0.004-0.009-0.007-0.017-0.012-0.026V7.707
			c-0.001-0.002-0.002-0.005-0.004-0.007c0,0,0-0.001,0-0.002c-0.002-0.002-0.003-0.005-0.004-0.007V7.689
			c-0.002-0.003-0.003-0.005-0.004-0.008c0,0,0-0.001,0-0.001c-0.003-0.006-0.006-0.012-0.009-0.018V7.662
			c-0.001-0.003-0.002-0.005-0.004-0.008c0,0,0-0.001,0-0.001c-0.001-0.002-0.003-0.006-0.004-0.008c0,0,0-0.001,0-0.001
			c-0.001-0.003-0.003-0.006-0.004-0.008c0,0,0-0.001,0-0.001c-0.006-0.012-0.011-0.023-0.017-0.035c0-0.001,0-0.001,0-0.001
			c-0.001-0.002-0.003-0.006-0.004-0.008c0,0,0-0.001-0.001-0.002c-0.001-0.002-0.002-0.005-0.003-0.007
			c0,0-0.001-0.001-0.001-0.001c-0.001-0.003-0.002-0.005-0.004-0.008l0,0c-0.004-0.009-0.008-0.018-0.012-0.026
			c-0.001-0.001-0.001-0.001-0.001-0.001c-0.001-0.002-0.002-0.005-0.003-0.007c-0.001,0-0.001-0.001-0.001-0.002
			c-0.001-0.002-0.002-0.005-0.004-0.007c0,0,0-0.001,0-0.002c-0.002-0.002-0.003-0.004-0.004-0.006c0,0,0-0.001-0.001-0.002
			c-0.004-0.009-0.008-0.017-0.012-0.026c0,0-0.001-0.001-0.001-0.001c-0.001-0.002-0.002-0.004-0.003-0.007
			c0-0.001-0.001-0.001-0.001-0.002c-0.001-0.002-0.002-0.004-0.003-0.007c-0.001,0-0.001-0.001-0.001-0.001
			c-0.001-0.002-0.003-0.005-0.004-0.007V7.466c-0.003-0.006-0.006-0.012-0.009-0.018V7.447c-0.002-0.003-0.003-0.005-0.004-0.008
			l-0.001-0.001c-0.001-0.002-0.002-0.005-0.003-0.007c0-0.001-0.001-0.002-0.001-0.002c-0.001-0.002-0.002-0.004-0.003-0.006
			c-0.001-0.001-0.001-0.001-0.001-0.002c-0.001-0.002-0.002-0.004-0.004-0.006c0-0.001,0-0.001,0-0.002
			c-0.003-0.006-0.006-0.011-0.009-0.017c0,0-0.001-0.001-0.001-0.001c-0.001-0.002-0.002-0.005-0.003-0.007
			c0-0.001-0.001-0.002-0.001-0.002c-0.001-0.002-0.002-0.003-0.003-0.006c-0.001-0.001-0.001-0.002-0.002-0.003
			c0-0.001-0.002-0.004-0.002-0.005c-0.001-0.001-0.001-0.002-0.002-0.003c-0.001-0.002-0.002-0.004-0.003-0.006
			c0-0.001-0.001-0.002-0.001-0.003c-0.003-0.005-0.006-0.011-0.008-0.017c-0.001-0.001-0.001-0.002-0.002-0.003
			c-0.001-0.001-0.001-0.003-0.002-0.005c-0.001-0.001-0.001-0.001-0.002-0.002c-0.001-0.002-0.002-0.004-0.003-0.006
			c0-0.001-0.001-0.002-0.001-0.003c-0.001-0.002-0.002-0.004-0.003-0.006c0-0.001-0.001-0.002-0.001-0.002
			c-0.001-0.001-0.002-0.004-0.003-0.006c-0.001,0-0.001-0.002-0.002-0.002c-0.002-0.006-0.005-0.012-0.008-0.017
			c0-0.001-0.001-0.001-0.001-0.002c-0.001-0.002-0.002-0.004-0.003-0.007c-0.001-0.001-0.001-0.001-0.001-0.002
			c-0.001-0.002-0.002-0.003-0.003-0.005c-0.001-0.001-0.001-0.002-0.002-0.003c-0.001-0.002-0.002-0.004-0.003-0.006
			c0,0-0.001-0.001-0.001-0.002c-0.001-0.002-0.002-0.004-0.003-0.007c-0.001,0-0.001-0.001-0.001-0.001
			c-0.003-0.006-0.006-0.012-0.009-0.017c0-0.001-0.001-0.002-0.001-0.003c-0.001-0.002-0.002-0.004-0.003-0.006
			c0-0.001-0.001-0.002-0.001-0.002c-0.001-0.002-0.002-0.003-0.003-0.006c-0.001-0.001-0.001-0.002-0.002-0.002
			c-0.001-0.002-0.002-0.004-0.003-0.006c0,0-0.001-0.001-0.001-0.002c-0.001-0.002-0.002-0.004-0.003-0.007
			c-0.001,0-0.001-0.001-0.001-0.001c-0.003-0.006-0.006-0.012-0.009-0.018c0,0,0,0-0.001-0.001
			c-0.001-0.002-0.002-0.005-0.003-0.007c-0.001-0.001-0.001-0.001-0.001-0.002c-0.001-0.002-0.003-0.004-0.004-0.007
			c0-0.001,0-0.001-0.001-0.002c-0.001-0.002-0.002-0.004-0.003-0.007c-0.001,0-0.001-0.001-0.001-0.002
			c-0.001-0.002-0.003-0.005-0.004-0.007c0,0,0-0.001,0-0.001c-0.004-0.006-0.006-0.012-0.009-0.018c-0.001,0-0.001,0-0.001-0.001
			c-0.001-0.002-0.003-0.005-0.004-0.007c0-0.001,0-0.002-0.001-0.002c-0.001-0.002-0.002-0.004-0.003-0.006
			c0-0.001-0.001-0.001-0.001-0.002c-0.001-0.002-0.002-0.004-0.003-0.006c-0.001-0.001-0.001-0.002-0.002-0.003
			c-0.001-0.002-0.002-0.003-0.002-0.005c-0.001-0.001-0.002-0.002-0.002-0.003c-0.001-0.002-0.003-0.004-0.004-0.006
			c0-0.001-0.001-0.002-0.001-0.003c-0.001-0.002-0.003-0.005-0.004-0.007c0,0-0.001-0.001-0.001-0.002
			c-0.001-0.002-0.002-0.003-0.003-0.006c-0.001-0.001-0.001-0.002-0.002-0.003s-0.002-0.003-0.002-0.005
			c-0.001-0.001-0.002-0.002-0.002-0.004c-0.001-0.001-0.002-0.003-0.003-0.004s-0.001-0.002-0.002-0.003
			c0-0.002-0.002-0.004-0.003-0.006c0,0-0.001-0.001-0.001-0.002c-0.003-0.005-0.006-0.011-0.009-0.017
			c0-0.001-0.001-0.002-0.001-0.003c-0.001-0.002-0.002-0.003-0.003-0.005c-0.001,0-0.001-0.002-0.002-0.002
			c-0.001-0.002-0.002-0.004-0.003-0.006c0-0.001-0.001-0.002-0.001-0.003c-0.001-0.002-0.002-0.004-0.003-0.005
			c-0.001-0.001-0.001-0.001-0.002-0.002c0-0.002-0.002-0.004-0.003-0.006c0-0.001-0.001-0.002-0.001-0.003
			c-0.001-0.002-0.002-0.004-0.004-0.007c0-0.001-0.001-0.002-0.002-0.003c0-0.002-0.002-0.004-0.003-0.006
			c0-0.001-0.001-0.003-0.002-0.004c0-0.001-0.001-0.003-0.002-0.004s-0.001-0.002-0.002-0.003
			c-0.001-0.002-0.002-0.003-0.002-0.005c-0.001-0.001-0.002-0.003-0.003-0.004c0-0.001-0.001-0.002-0.002-0.004
			c0-0.001-0.001-0.003-0.002-0.004c-0.001-0.002-0.002-0.003-0.002-0.005c-0.001-0.001-0.002-0.002-0.002-0.003
			c-0.003-0.005-0.006-0.011-0.009-0.016c-0.001-0.001-0.001-0.002-0.002-0.003c-0.001-0.002-0.002-0.003-0.003-0.005
			c0-0.001-0.001-0.002-0.001-0.003c-0.001-0.002-0.002-0.004-0.003-0.005c-0.001-0.001-0.001-0.002-0.002-0.003
			c-0.001-0.001-0.002-0.004-0.003-0.005c0-0.001-0.001-0.002-0.001-0.003c-0.001-0.001-0.002-0.003-0.003-0.005
			c-0.001-0.001-0.001-0.002-0.002-0.004s-0.002-0.003-0.003-0.005c-0.001-0.002-0.002-0.003-0.002-0.005
			c-0.001-0.002-0.003-0.004-0.004-0.006c0-0.001-0.001-0.002-0.002-0.003c0-0.001-0.001-0.003-0.002-0.004
			c-0.001-0.001-0.001-0.003-0.002-0.004c-0.001-0.002-0.001-0.002-0.002-0.004s-0.002-0.003-0.003-0.005
			c0-0.001-0.001-0.002-0.002-0.003c-0.001-0.002-0.001-0.003-0.002-0.004s-0.001-0.002-0.002-0.004
			c-0.001-0.001-0.002-0.003-0.003-0.004l0,0c-0.004-0.007-0.007-0.014-0.011-0.021c0,0-0.001-0.002-0.002-0.003
			c0-0.001-0.001-0.003-0.002-0.005c-0.001-0.001-0.001-0.002-0.002-0.003c-0.001-0.001-0.002-0.003-0.003-0.004
			c0-0.001-0.001-0.002-0.002-0.004c0-0.001-0.001-0.002-0.002-0.004c-0.001-0.001-0.002-0.003-0.002-0.004
			c-0.001-0.001-0.002-0.002-0.002-0.004c-0.002-0.002-0.003-0.004-0.005-0.007c0-0.001-0.001-0.001-0.001-0.003
			c-0.001-0.001-0.002-0.003-0.003-0.005c-0.001-0.001-0.002-0.003-0.003-0.004c0-0.001-0.001-0.003-0.002-0.004
			c0-0.001-0.001-0.003-0.002-0.004c-0.001-0.001-0.001-0.002-0.002-0.004s-0.002-0.003-0.003-0.004
			c0-0.001-0.001-0.002-0.002-0.003c-0.001-0.002-0.001-0.003-0.002-0.004s-0.002-0.003-0.003-0.004
			c0-0.001-0.001-0.002-0.002-0.004c-0.001-0.002-0.003-0.005-0.004-0.007c-0.001-0.001-0.001-0.002-0.002-0.003
			c-0.001-0.001-0.001-0.003-0.002-0.005c-0.001-0.001-0.002-0.003-0.003-0.004c-0.001-0.001-0.001-0.002-0.002-0.004
			c-0.001-0.001-0.002-0.002-0.002-0.004c-0.001-0.001-0.002-0.002-0.003-0.004c0-0.001-0.001-0.003-0.002-0.004
			c-0.001-0.001-0.001-0.003-0.002-0.004c-0.001-0.001-0.002-0.003-0.003-0.004c0-0.001-0.001-0.002-0.001-0.003
			c-0.001-0.001-0.002-0.003-0.003-0.004c-0.002-0.002-0.003-0.005-0.004-0.007c-0.001-0.001-0.001-0.001-0.001-0.002
			c-0.002-0.002-0.003-0.005-0.004-0.007c-0.001,0-0.001-0.001-0.002-0.002c-0.001-0.002-0.002-0.004-0.003-0.005
			c0-0.001-0.001-0.002-0.002-0.003c0-0.001-0.001-0.003-0.002-0.005c-0.001-0.001-0.002-0.002-0.003-0.004
			c0-0.001-0.001-0.002-0.002-0.004c0-0.001-0.001-0.002-0.002-0.003s-0.002-0.003-0.002-0.004
			c-0.001-0.001-0.002-0.003-0.003-0.004c-0.001-0.001-0.002-0.004-0.003-0.005c-0.001-0.002-0.002-0.005-0.004-0.007
			c0-0.001-0.001-0.001-0.001-0.003c-0.001-0.001-0.002-0.003-0.003-0.004s-0.002-0.002-0.002-0.004
			c-0.001-0.001-0.002-0.003-0.003-0.004c0-0.001-0.001-0.002-0.002-0.004c-0.001-0.001-0.001-0.003-0.002-0.004
			c-0.001-0.001-0.002-0.003-0.003-0.004c0-0.001-0.001-0.002-0.002-0.003c-0.001-0.002-0.001-0.003-0.002-0.004
			c-0.001-0.002-0.002-0.003-0.003-0.004c0-0.001-0.002-0.003-0.003-0.005s-0.002-0.004-0.003-0.006
			c-0.001-0.001-0.002-0.002-0.003-0.004c0-0.001-0.001-0.003-0.002-0.005c-0.001-0.001-0.002-0.002-0.002-0.003
			c-0.001-0.001-0.002-0.003-0.003-0.004s-0.001-0.002-0.002-0.003c-0.001-0.002-0.002-0.003-0.003-0.005
			c0-0.001-0.001-0.002-0.001-0.003c-0.001-0.001-0.002-0.003-0.003-0.005c-0.001-0.001-0.001-0.002-0.002-0.003
			c-0.001-0.002-0.003-0.005-0.004-0.007s-0.002-0.003-0.003-0.005c-0.001-0.001-0.001-0.001-0.002-0.003s-0.002-0.003-0.003-0.004
			c0-0.002-0.001-0.003-0.002-0.004s-0.002-0.002-0.002-0.004c-0.001-0.001-0.002-0.002-0.003-0.004s-0.001-0.002-0.002-0.004
			s-0.002-0.002-0.002-0.003c-0.001-0.002-0.002-0.003-0.003-0.005s-0.002-0.002-0.002-0.003c-0.001-0.001-0.002-0.002-0.002-0.004
			c-0.004-0.005-0.007-0.01-0.01-0.015c0-0.001-0.001-0.003-0.002-0.004c-0.001-0.002-0.002-0.003-0.003-0.005
			c0-0.001-0.001-0.002-0.002-0.003c-0.001-0.002-0.001-0.003-0.002-0.004s-0.002-0.002-0.003-0.004
			c0-0.001-0.001-0.003-0.002-0.004c-0.001-0.001-0.002-0.002-0.002-0.004c-0.001-0.001-0.002-0.002-0.003-0.003
			c0-0.001-0.002-0.003-0.003-0.004c0-0.001-0.001-0.002-0.002-0.004c0-0.001-0.001-0.002-0.002-0.003
			c-0.002-0.004-0.004-0.007-0.006-0.01c0-0.001,0-0.001,0-0.002c-0.002-0.001-0.002-0.003-0.004-0.005
			c0-0.001-0.001-0.002-0.001-0.003c-0.001-0.002-0.002-0.003-0.003-0.005c-0.001,0-0.002-0.002-0.002-0.003
			c-0.001-0.001-0.002-0.003-0.003-0.005c-0.001-0.001-0.001-0.002-0.002-0.003c-0.001-0.002-0.002-0.003-0.003-0.005
			c0-0.001-0.001-0.002-0.002-0.003c0-0.001-0.001-0.003-0.002-0.004c-0.001-0.002-0.003-0.004-0.004-0.005
			c-0.001-0.002-0.002-0.004-0.003-0.006c-0.001-0.001-0.002-0.002-0.003-0.003c0-0.001-0.001-0.003-0.002-0.005
			c-0.001-0.001-0.002-0.002-0.002-0.003c-0.001-0.001-0.002-0.003-0.003-0.004c-0.001,0-0.001-0.002-0.002-0.003
			c-0.001-0.002-0.002-0.003-0.003-0.005c-0.001-0.001-0.001-0.001-0.001-0.002c-0.001-0.002-0.003-0.003-0.004-0.005
			c0-0.001-0.001-0.001-0.001-0.002c-0.004-0.007-0.008-0.013-0.012-0.02l0,0c-0.002-0.002-0.003-0.004-0.004-0.006
			c0-0.001-0.001-0.001-0.001-0.002c-0.001-0.002-0.003-0.004-0.004-0.006c0-0.001,0-0.001-0.001-0.001
			c-0.001-0.002-0.002-0.004-0.003-0.006c-0.001,0-0.001,0-0.001-0.001c-0.006-0.009-0.011-0.018-0.017-0.027c0,0,0,0-0.001-0.001
			c-0.001-0.002-0.002-0.004-0.003-0.005c-0.001,0-0.001-0.001-0.001-0.002c-0.002-0.001-0.003-0.003-0.004-0.005
			c0,0-0.001-0.002-0.001-0.002c-0.001-0.001-0.003-0.003-0.004-0.005c0-0.001-0.001-0.001-0.001-0.002
			c-0.001-0.002-0.002-0.003-0.003-0.005c-0.001-0.001-0.001-0.002-0.002-0.003c-0.004-0.006-0.008-0.013-0.012-0.019V6.207
			c-0.001-0.002-0.002-0.003-0.003-0.005c-0.001-0.001-0.002-0.002-0.002-0.003c-0.001-0.001-0.002-0.003-0.003-0.004
			c-0.001-0.001-0.001-0.002-0.002-0.003c-0.001-0.002-0.002-0.003-0.003-0.005c-0.001-0.001-0.001-0.002-0.002-0.003
			c-0.001-0.001-0.002-0.003-0.003-0.005c-0.001-0.001-0.001-0.001-0.001-0.002c-0.004-0.006-0.008-0.013-0.012-0.019l-0.001,0
			c-0.001-0.002-0.003-0.004-0.004-0.006c0,0,0,0-0.001-0.001c-0.001-0.001-0.002-0.003-0.003-0.005
			c-0.001,0-0.001-0.001-0.002-0.002c-0.001-0.002-0.002-0.003-0.003-0.005c-0.001,0-0.001,0-0.001-0.001
			c-0.001-0.002-0.003-0.004-0.004-0.006c0,0,0,0-0.001-0.001c-0.005-0.009-0.011-0.018-0.017-0.026c0-0.001,0-0.001-0.001-0.002
			c-0.001-0.002-0.002-0.004-0.003-0.005c-0.001,0-0.001-0.001-0.002-0.002c-0.001-0.001-0.002-0.003-0.003-0.005
			c0-0.001-0.001-0.002-0.002-0.002c-0.005-0.009-0.011-0.018-0.017-0.027l0,0c-0.001-0.002-0.003-0.004-0.004-0.006
			c0,0-0.001,0-0.001-0.001c-0.001-0.002-0.002-0.004-0.004-0.006c0,0,0-0.001-0.001-0.001c-0.001-0.002-0.002-0.004-0.004-0.006v0
			c-0.002-0.002-0.003-0.004-0.004-0.007h-0.001c-0.006-0.009-0.012-0.019-0.018-0.027c0,0,0-0.001,0-0.001
			c-0.002-0.002-0.003-0.004-0.004-0.006c-0.001-0.001-0.001-0.001-0.001-0.002c-0.002-0.002-0.003-0.004-0.004-0.006
			c0,0-0.001-0.001-0.001-0.002c-0.002-0.001-0.003-0.003-0.004-0.005c0-0.001,0-0.001,0-0.001c-0.005-0.007-0.009-0.013-0.013-0.02
			c0,0-0.001-0.001-0.001-0.001c-0.001-0.001-0.003-0.003-0.004-0.005c0-0.001-0.001-0.001-0.001-0.002
			c-0.001-0.002-0.003-0.004-0.004-0.005c0,0-0.001-0.001-0.001-0.002c-0.001-0.002-0.003-0.004-0.004-0.006c0,0,0,0,0,0
			c-0.008-0.012-0.016-0.023-0.022-0.034c0,0-0.001-0.001-0.001-0.001c-0.001-0.002-0.003-0.004-0.004-0.006
			c0-0.001,0-0.001-0.001-0.001c-0.001-0.002-0.002-0.004-0.004-0.006c0,0,0,0,0,0c-0.006-0.009-0.012-0.018-0.018-0.027
			c-0.001,0-0.001-0.001-0.001-0.001c-0.001-0.002-0.003-0.004-0.004-0.006c0,0-0.001-0.001-0.001-0.001
			c-0.001-0.002-0.003-0.004-0.004-0.006c0,0-0.001,0-0.001-0.001c-0.001-0.002-0.003-0.004-0.004-0.006c0,0,0,0,0,0
			c-0.008-0.011-0.016-0.022-0.022-0.034c-0.001,0-0.001-0.001-0.001-0.002c-0.002-0.001-0.003-0.003-0.004-0.005
			c-0.001-0.001-0.001-0.001-0.001-0.002c-0.002-0.002-0.003-0.004-0.004-0.006c-0.001,0-0.001,0-0.001-0.001
			c-0.008-0.011-0.016-0.022-0.022-0.033c0-0.001-0.001-0.001-0.001-0.001c-0.001-0.002-0.003-0.004-0.004-0.006
			c0,0-0.001-0.001-0.001-0.002c-0.008-0.011-0.016-0.022-0.022-0.034l0,0c-0.002-0.002-0.003-0.004-0.005-0.006
			c0,0,0-0.001-0.001-0.001c-0.001-0.002-0.002-0.004-0.004-0.006c0,0,0-0.001-0.001-0.001c-0.001-0.002-0.002-0.003-0.004-0.005
			c0-0.001,0-0.001-0.001-0.002c-0.006-0.009-0.012-0.017-0.018-0.025c0-0.001,0-0.001-0.001-0.001
			c-0.001-0.002-0.002-0.004-0.004-0.006c0,0-0.001-0.001-0.001-0.002c-0.001-0.002-0.002-0.003-0.004-0.005
			c0,0,0-0.001-0.001-0.001c-0.001-0.002-0.003-0.004-0.004-0.006c0,0,0-0.001-0.001-0.001c-0.001-0.002-0.002-0.004-0.004-0.006
			c0-0.001,0,0,0-0.001c-0.006-0.009-0.013-0.018-0.019-0.026L185.68,5.61c-0.001-0.002-0.002-0.004-0.004-0.006
			c0,0-0.001-0.001-0.001-0.001c-0.001-0.002-0.003-0.004-0.004-0.005c0-0.001-0.001-0.001-0.001-0.002
			c-0.006-0.008-0.012-0.017-0.018-0.025c-0.001,0-0.001-0.001-0.001-0.001c-0.001-0.002-0.003-0.004-0.004-0.006
			c-0.001,0-0.001-0.001-0.001-0.001c-0.002-0.002-0.003-0.003-0.004-0.005c0,0-0.001-0.001-0.002-0.002
			c-0.001-0.002-0.002-0.004-0.004-0.006l0,0c-0.005-0.007-0.009-0.014-0.014-0.02c0,0,0-0.001-0.001-0.001
			c-0.001-0.002-0.002-0.004-0.004-0.005c0,0,0-0.001-0.001-0.001c-0.001-0.002-0.002-0.004-0.004-0.006
			c0,0-0.001-0.001-0.001-0.002c-0.001-0.001-0.003-0.003-0.004-0.005c0,0-0.001-0.001-0.001-0.002
			c-0.002-0.002-0.003-0.004-0.004-0.005c0,0-0.001-0.001-0.001-0.001c-0.006-0.008-0.012-0.017-0.018-0.025
			c-0.001,0-0.001-0.001-0.002-0.001c-0.001-0.002-0.002-0.004-0.004-0.006c0,0-0.001-0.001-0.001-0.001
			c-0.001-0.002-0.002-0.003-0.004-0.005c0,0-0.001-0.001-0.001-0.002c-0.001-0.001-0.003-0.004-0.004-0.005
			c0,0-0.001,0-0.001-0.001c-0.001-0.002-0.003-0.004-0.004-0.006h-0.001c-0.004-0.007-0.009-0.013-0.014-0.02
			c0,0,0-0.001-0.001-0.001c-0.001-0.002-0.002-0.003-0.003-0.005c-0.001-0.001-0.001-0.002-0.002-0.003
			c-0.001-0.001-0.003-0.003-0.004-0.005c0,0-0.001-0.001-0.001-0.002c-0.002-0.001-0.003-0.003-0.004-0.005
			c-0.001-0.001-0.001-0.001-0.002-0.002c-0.001-0.002-0.002-0.003-0.003-0.005c-0.001,0-0.001,0-0.001,0
			c-0.003-0.004-0.006-0.009-0.009-0.013c-0.001,0,0,0-0.001,0c-0.001-0.001-0.002-0.003-0.003-0.005
			c-0.001,0-0.002-0.001-0.002-0.002c-0.001-0.001-0.003-0.003-0.004-0.005c0-0.001-0.001-0.001-0.001-0.002
			c-0.002-0.002-0.003-0.003-0.004-0.005c-0.001-0.001-0.001-0.001-0.002-0.002c-0.001-0.001-0.002-0.003-0.004-0.005
			c0,0,0-0.001-0.001-0.001c-0.001-0.002-0.002-0.004-0.004-0.006c0,0,0,0,0-0.001c-0.003-0.003-0.006-0.007-0.009-0.011
			c0-0.001-0.001-0.001-0.001-0.002c-0.001-0.001-0.003-0.003-0.004-0.005c0,0-0.001-0.002-0.002-0.002
			c-0.001-0.001-0.002-0.002-0.003-0.004c-0.001-0.001-0.002-0.002-0.002-0.003c-0.001-0.001-0.002-0.003-0.003-0.004
			s-0.002-0.003-0.003-0.004s-0.002-0.002-0.002-0.003c-0.002-0.002-0.003-0.003-0.004-0.005c-0.001-0.001-0.001-0.002-0.002-0.003
			s-0.002-0.002-0.002-0.003c-0.003-0.003-0.006-0.007-0.008-0.01c0,0,0,0-0.001,0c-0.001-0.002-0.002-0.003-0.003-0.005
			c-0.001-0.001-0.002-0.002-0.002-0.003c-0.001-0.001-0.003-0.003-0.004-0.004c0-0.001-0.001-0.001-0.002-0.002
			c-0.001-0.002-0.002-0.003-0.003-0.005c-0.001-0.001-0.001-0.001-0.002-0.002c-0.001-0.001-0.003-0.003-0.004-0.004
			c0-0.001-0.001-0.002-0.001-0.002c-0.002-0.001-0.003-0.003-0.004-0.004s-0.002-0.002-0.002-0.003
			c-0.003-0.003-0.005-0.006-0.007-0.009c-0.001,0-0.001-0.001-0.002-0.001c-0.001-0.002-0.002-0.003-0.004-0.005
			c0-0.001,0-0.001-0.001-0.002s-0.002-0.003-0.004-0.005c-0.001-0.001-0.001-0.001-0.002-0.002
			c-0.001-0.002-0.002-0.003-0.003-0.005c-0.001-0.001-0.001-0.001-0.002-0.002c-0.001-0.001-0.002-0.003-0.004-0.004
			c0-0.001-0.001-0.002-0.002-0.003c-0.001-0.001-0.002-0.003-0.003-0.004c-0.001,0-0.001-0.001-0.001-0.001
			c-0.003-0.003-0.005-0.007-0.008-0.01c-0.001-0.001-0.001-0.002-0.002-0.003s-0.002-0.002-0.003-0.004
			c-0.001-0.001-0.002-0.002-0.002-0.003c-0.001-0.001-0.002-0.003-0.004-0.004c0-0.001-0.001-0.002-0.002-0.003
			c-0.001-0.001-0.002-0.002-0.003-0.004c-0.001-0.001-0.002-0.002-0.003-0.003s-0.002-0.003-0.003-0.004s-0.001-0.002-0.002-0.003
			c-0.001-0.001-0.002-0.003-0.003-0.004c-0.001-0.001-0.002-0.003-0.003-0.004c-0.002-0.002-0.003-0.003-0.005-0.005
			c-0.001-0.002-0.002-0.003-0.003-0.005c-0.001-0.001-0.002-0.002-0.003-0.003c0-0.001-0.002-0.003-0.003-0.004
			s-0.002-0.002-0.003-0.004c-0.001-0.001-0.002-0.002-0.003-0.004c-0.001-0.001-0.001-0.002-0.002-0.003s-0.002-0.003-0.003-0.004
			s-0.002-0.002-0.003-0.004c-0.001-0.001-0.002-0.002-0.003-0.003s-0.002-0.002-0.003-0.003c0-0.001-0.001-0.002-0.002-0.003
			c-0.002-0.003-0.004-0.005-0.006-0.007c-0.001-0.001-0.002-0.002-0.003-0.004c0-0.001-0.001-0.001-0.002-0.002
			c-0.001-0.002-0.002-0.003-0.004-0.005c0-0.001-0.001-0.002-0.002-0.003c-0.001-0.001-0.002-0.003-0.003-0.004
			c-0.001-0.001-0.002-0.002-0.003-0.003c-0.001-0.001-0.002-0.002-0.003-0.004c-0.001-0.001-0.002-0.002-0.003-0.003
			c-0.001-0.002-0.002-0.003-0.003-0.005c-0.001-0.001-0.001-0.001-0.002-0.002c-0.001-0.002-0.003-0.004-0.004-0.005
			c-0.001-0.002-0.003-0.004-0.004-0.006c-0.001-0.001-0.002-0.003-0.003-0.004s-0.002-0.002-0.003-0.003
			c-0.001-0.002-0.002-0.002-0.003-0.004s-0.002-0.002-0.003-0.004c-0.001-0.001-0.002-0.003-0.003-0.004s-0.002-0.002-0.002-0.003
			c-0.002-0.002-0.002-0.002-0.004-0.004c0-0.001-0.002-0.002-0.002-0.003c-0.001-0.001-0.003-0.003-0.004-0.004
			c0-0.001-0.001-0.002-0.002-0.003c-0.002-0.002-0.004-0.004-0.005-0.006c-0.001-0.001-0.002-0.002-0.003-0.003
			s-0.002-0.003-0.003-0.004c-0.001-0.001-0.002-0.002-0.003-0.004c-0.001-0.001-0.002-0.002-0.003-0.003S185.229,5.001,185.229,5
			c-0.001-0.001-0.002-0.003-0.003-0.004s-0.002-0.002-0.002-0.003c-0.002-0.002-0.002-0.003-0.004-0.004
			c-0.001-0.001-0.002-0.003-0.003-0.004c0-0.001-0.001-0.002-0.002-0.003c-0.001-0.001-0.002-0.003-0.003-0.004
			c-0.001-0.001-0.002-0.003-0.003-0.004c-0.002-0.002-0.004-0.004-0.005-0.006c-0.001-0.001-0.003-0.003-0.003-0.004
			c-0.001-0.001-0.002-0.002-0.003-0.003s-0.002-0.002-0.003-0.003c-0.001-0.001-0.002-0.002-0.003-0.003
			c-0.001-0.001-0.002-0.003-0.003-0.004c-0.001-0.001-0.002-0.002-0.003-0.003c-0.001-0.001-0.002-0.003-0.003-0.004
			c-0.001-0.001-0.002-0.002-0.002-0.002c-0.002-0.001-0.003-0.004-0.005-0.005c0-0.001-0.001-0.001-0.001-0.002
			c-0.002-0.003-0.004-0.005-0.006-0.007c0-0.001-0.001-0.001-0.001-0.002c-0.002-0.002-0.004-0.004-0.005-0.006
			c-0.001,0-0.001-0.001-0.002-0.002c-0.001-0.001-0.002-0.003-0.004-0.005c-0.001-0.001-0.001-0.002-0.002-0.002
			c-0.001-0.002-0.003-0.003-0.004-0.005c-0.001-0.001-0.001-0.001-0.002-0.002c-0.001-0.002-0.003-0.003-0.004-0.005
			c-0.001,0-0.001-0.001-0.002-0.002C185.143,4.892,185.141,4.889,185.139,4.887L185.139,4.887z"/>
	</g>
</g>
</svg>
